<?xml version="1.0" encoding="utf-8"?>
<!-- Generator: Adobe Illustrator 21.1.0, SVG Export Plug-In . SVG Version: 6.00 Build 0)  -->
<svg version="1.1" id="Layer_1" xmlns="http://www.w3.org/2000/svg" xmlns:xlink="http://www.w3.org/1999/xlink" x="0px" y="0px"
	 viewBox="0 0 24 12" style="enable-background:new 0 0 24 12;" xml:space="preserve">
<style type="text/css">
	.st0{fill:#4A7C6D;}
	.st1{fill:none;stroke:#4A7C6D;stroke-width:0.5004;stroke-miterlimit:10;}
	.st2{fill:none;stroke:#4A7C6D;stroke-width:0.5;stroke-miterlimit:10;}
</style>
<g>
	<g>
		<path class="st0" d="M13.32-13.67c0.6,0,1.09,0.14,1.47,0.41c0.38,0.28,0.68,0.63,0.89,1.06c0.21,0.43,0.36,0.9,0.43,1.41
			c0.08,0.51,0.11,1.01,0.11,1.49s-0.04,0.98-0.11,1.49c-0.08,0.51-0.22,0.98-0.43,1.41c-0.21,0.43-0.51,0.78-0.89,1.06
			c-0.38,0.28-0.87,0.41-1.47,0.41s-1.09-0.14-1.47-0.41c-0.38-0.28-0.68-0.63-0.89-1.06c-0.21-0.43-0.36-0.9-0.43-1.41
			c-0.08-0.51-0.11-1.01-0.11-1.49s0.04-0.98,0.11-1.49c0.08-0.51,0.22-0.98,0.43-1.41c0.21-0.43,0.51-0.78,0.89-1.06
			C12.23-13.53,12.72-13.67,13.32-13.67z M13.32-6.07c0.3,0,0.54-0.09,0.74-0.26c0.2-0.17,0.36-0.4,0.47-0.7
			c0.12-0.29,0.2-0.63,0.25-1.03c0.05-0.39,0.07-0.81,0.07-1.25c0-0.44-0.02-0.85-0.07-1.24c-0.05-0.39-0.13-0.73-0.25-1.03
			c-0.12-0.3-0.27-0.53-0.47-0.7c-0.2-0.17-0.45-0.26-0.74-0.26c-0.3,0-0.55,0.09-0.75,0.26c-0.2,0.17-0.35,0.41-0.47,0.7
			c-0.12,0.3-0.2,0.64-0.25,1.03s-0.07,0.8-0.07,1.24c0,0.44,0.02,0.86,0.07,1.25c0.05,0.39,0.13,0.73,0.25,1.03
			c0.12,0.29,0.27,0.52,0.47,0.7C12.77-6.16,13.02-6.07,13.32-6.07z"/>
		<path class="st0" d="M17-12.11c0.29,0,0.57-0.02,0.84-0.07s0.52-0.13,0.74-0.24c0.22-0.11,0.41-0.26,0.56-0.43
			c0.16-0.18,0.26-0.39,0.31-0.65h1.12v8.4h-1.5v-5.93H17V-12.11z"/>
	</g>
</g>
<g>
	<path class="st0" d="M2.07-10.38c0.08-0.01,0.14-0.02,0.17-0.04c0.05-0.03,0.09-0.11,0.12-0.21l0.43-1.55
		c0.01-0.05,0.02-0.09,0.03-0.12s0.01-0.06,0.01-0.09c0-0.06-0.02-0.1-0.06-0.12c-0.04-0.02-0.11-0.03-0.21-0.04v-0.06h0.9
		c0.17,0,0.31,0.01,0.44,0.04s0.24,0.09,0.35,0.18c0.08,0.07,0.14,0.15,0.19,0.24c0.08,0.14,0.11,0.3,0.11,0.48
		c0,0.35-0.13,0.66-0.41,0.91c-0.3,0.28-0.68,0.42-1.16,0.42H2.07V-10.38z M4.01-11.07c0.11-0.22,0.16-0.44,0.16-0.66
		c0-0.22-0.05-0.4-0.16-0.55c-0.11-0.15-0.3-0.22-0.58-0.22c-0.08,0-0.13,0.01-0.16,0.02c-0.03,0.01-0.05,0.04-0.06,0.08l-0.48,1.71
		c-0.01,0.03-0.02,0.06-0.02,0.08c0,0.02,0,0.03,0,0.05c0,0.05,0.02,0.08,0.05,0.1c0.03,0.02,0.09,0.03,0.19,0.03
		C3.45-10.44,3.8-10.65,4.01-11.07z"/>
	<path class="st0" d="M4.54-10.38c0.08-0.02,0.14-0.06,0.18-0.11s0.13-0.19,0.27-0.42l1.02-1.75h0.08l0.34,1.98
		c0.02,0.13,0.05,0.21,0.08,0.24c0.03,0.03,0.09,0.05,0.19,0.06v0.06H5.83v-0.06c0.1-0.01,0.17-0.02,0.2-0.04
		c0.05-0.02,0.07-0.07,0.07-0.13c0-0.02,0-0.04,0-0.05c0-0.02,0-0.04-0.01-0.05l-0.08-0.46H5.28l-0.22,0.39
		c-0.01,0.03-0.03,0.05-0.04,0.08c-0.02,0.05-0.03,0.1-0.03,0.13c0,0.04,0.02,0.08,0.05,0.09c0.03,0.02,0.08,0.03,0.16,0.03v0.06
		H4.54V-10.38z M6-11.24l-0.15-0.91l-0.51,0.91H6z"/>
	<path class="st0" d="M6.85-10.38c0.1-0.01,0.18-0.02,0.22-0.04c0.07-0.04,0.12-0.11,0.15-0.21l0.21-0.74l-0.27-0.94
		c-0.03-0.1-0.06-0.16-0.08-0.18c-0.03-0.02-0.09-0.04-0.17-0.05v-0.06h0.83v0.06c-0.08,0-0.14,0.01-0.17,0.02
		c-0.05,0.02-0.08,0.06-0.08,0.11c0,0.02,0,0.04,0.01,0.07S7.5-12.3,7.5-12.29l0.21,0.75L8.09-12c0.09-0.1,0.15-0.18,0.18-0.24
		c0.06-0.09,0.09-0.16,0.09-0.2s-0.02-0.08-0.07-0.09c-0.03-0.01-0.09-0.02-0.17-0.02v-0.06h0.73v0.06
		c-0.07,0.01-0.12,0.02-0.16,0.05c-0.04,0.03-0.09,0.08-0.15,0.16l-0.77,0.95l-0.18,0.65c-0.02,0.05-0.03,0.1-0.03,0.13
		c-0.01,0.03-0.01,0.06-0.01,0.08c0,0.07,0.02,0.11,0.07,0.12s0.13,0.03,0.25,0.03v0.06H6.85V-10.38z"/>
</g>
<line class="st1" x1="2.07" y1="-9.17" x2="8.57" y2="-9.17"/>
<g>
	<path class="st0" d="M42.87-13.67c0.6,0,1.09,0.14,1.47,0.41c0.38,0.28,0.68,0.63,0.89,1.06c0.21,0.43,0.36,0.9,0.43,1.41
		c0.08,0.51,0.11,1.01,0.11,1.49s-0.04,0.98-0.11,1.49c-0.08,0.51-0.22,0.98-0.43,1.41c-0.21,0.43-0.51,0.78-0.89,1.06
		c-0.38,0.28-0.87,0.41-1.47,0.41c-0.6,0-1.09-0.14-1.47-0.41c-0.38-0.28-0.68-0.63-0.89-1.06c-0.21-0.43-0.36-0.9-0.43-1.41
		C40-8.33,39.97-8.82,39.97-9.3s0.04-0.98,0.11-1.49c0.08-0.51,0.22-0.98,0.43-1.41c0.21-0.43,0.51-0.78,0.89-1.06
		C41.78-13.53,42.27-13.67,42.87-13.67z M42.87-6.07c0.3,0,0.54-0.09,0.74-0.26c0.2-0.17,0.36-0.4,0.47-0.7s0.2-0.63,0.25-1.03
		c0.05-0.39,0.07-0.81,0.07-1.25c0-0.44-0.02-0.85-0.07-1.24s-0.13-0.73-0.25-1.03s-0.27-0.53-0.47-0.7
		c-0.2-0.17-0.45-0.26-0.74-0.26c-0.3,0-0.55,0.09-0.75,0.26c-0.2,0.17-0.35,0.41-0.47,0.7c-0.12,0.3-0.2,0.64-0.25,1.03
		s-0.07,0.8-0.07,1.24c0,0.44,0.02,0.86,0.07,1.25c0.05,0.39,0.13,0.73,0.25,1.03c0.12,0.29,0.27,0.52,0.47,0.7
		C42.32-6.16,42.57-6.07,42.87-6.07z"/>
	<path class="st0" d="M52.11-5.1h-5.74c0.01-0.7,0.18-1.3,0.5-1.82c0.33-0.52,0.78-0.97,1.34-1.36c0.27-0.2,0.56-0.39,0.85-0.58
		c0.3-0.19,0.57-0.39,0.82-0.61c0.25-0.22,0.45-0.45,0.61-0.7s0.24-0.54,0.25-0.87c0-0.15-0.02-0.31-0.05-0.49
		c-0.04-0.17-0.11-0.33-0.21-0.48c-0.1-0.15-0.25-0.27-0.43-0.37c-0.18-0.1-0.42-0.15-0.72-0.15c-0.27,0-0.5,0.05-0.68,0.16
		s-0.32,0.26-0.43,0.44c-0.11,0.19-0.19,0.41-0.24,0.67c-0.05,0.26-0.08,0.53-0.09,0.83h-1.37c0-0.46,0.06-0.89,0.19-1.29
		s0.31-0.74,0.56-1.03c0.25-0.29,0.55-0.51,0.91-0.68c0.36-0.16,0.77-0.25,1.24-0.25c0.51,0,0.94,0.08,1.28,0.25
		s0.62,0.38,0.83,0.64c0.21,0.26,0.36,0.53,0.45,0.83c0.09,0.3,0.13,0.59,0.13,0.86c0,0.34-0.05,0.64-0.16,0.91
		c-0.1,0.27-0.24,0.52-0.42,0.75s-0.38,0.44-0.6,0.63c-0.22,0.19-0.46,0.37-0.7,0.54c-0.24,0.17-0.48,0.33-0.72,0.48
		c-0.24,0.15-0.46,0.3-0.67,0.46c-0.2,0.15-0.38,0.31-0.53,0.47c-0.15,0.16-0.26,0.34-0.31,0.52h4.09V-5.1z"/>
</g>
<g>
	<path class="st0" d="M31.62-10.38c0.08-0.01,0.14-0.02,0.17-0.04c0.05-0.03,0.09-0.11,0.12-0.21l0.43-1.55
		c0.01-0.05,0.02-0.09,0.03-0.12c0.01-0.03,0.01-0.06,0.01-0.09c0-0.06-0.02-0.1-0.06-0.12c-0.04-0.02-0.11-0.03-0.21-0.04v-0.06
		h0.9c0.17,0,0.31,0.01,0.44,0.04c0.13,0.03,0.24,0.09,0.35,0.18c0.08,0.07,0.14,0.15,0.19,0.24c0.08,0.14,0.11,0.3,0.11,0.48
		c0,0.35-0.13,0.66-0.41,0.91c-0.3,0.28-0.68,0.42-1.16,0.42h-0.93V-10.38z M33.55-11.07c0.11-0.22,0.16-0.44,0.16-0.66
		c0-0.22-0.05-0.4-0.16-0.55s-0.3-0.22-0.58-0.22c-0.08,0-0.13,0.01-0.16,0.02c-0.03,0.01-0.05,0.04-0.06,0.08l-0.48,1.71
		c-0.01,0.03-0.01,0.06-0.02,0.08c0,0.02,0,0.03,0,0.05c0,0.05,0.02,0.08,0.05,0.1c0.03,0.02,0.09,0.03,0.19,0.03
		C32.99-10.44,33.35-10.65,33.55-11.07z"/>
	<path class="st0" d="M34.08-10.38c0.08-0.02,0.14-0.06,0.18-0.11s0.13-0.19,0.27-0.42l1.02-1.75h0.08l0.34,1.98
		c0.02,0.13,0.05,0.21,0.08,0.24c0.03,0.03,0.09,0.05,0.19,0.06v0.06h-0.86v-0.06c0.1-0.01,0.17-0.02,0.2-0.04
		c0.05-0.02,0.07-0.07,0.07-0.13c0-0.02,0-0.04,0-0.05c0-0.02,0-0.04,0-0.05l-0.08-0.46h-0.75l-0.22,0.39
		c-0.01,0.03-0.03,0.05-0.04,0.08c-0.02,0.05-0.03,0.1-0.03,0.13c0,0.04,0.02,0.08,0.05,0.09c0.03,0.02,0.08,0.03,0.16,0.03v0.06
		h-0.66V-10.38z M35.55-11.24l-0.15-0.91l-0.51,0.91H35.55z"/>
	<path class="st0" d="M36.4-10.38c0.1-0.01,0.18-0.02,0.22-0.04c0.07-0.04,0.12-0.11,0.15-0.21l0.21-0.74l-0.27-0.94
		c-0.03-0.1-0.06-0.16-0.08-0.18c-0.03-0.02-0.09-0.04-0.17-0.05v-0.06h0.83v0.06c-0.08,0-0.14,0.01-0.17,0.02
		c-0.05,0.02-0.08,0.06-0.08,0.11c0,0.02,0,0.04,0.01,0.07s0.01,0.05,0.01,0.06l0.21,0.75L37.64-12c0.09-0.1,0.15-0.18,0.18-0.24
		c0.06-0.09,0.09-0.16,0.09-0.2s-0.02-0.08-0.07-0.09c-0.03-0.01-0.08-0.02-0.17-0.02v-0.06h0.73v0.06
		c-0.07,0.01-0.12,0.02-0.16,0.05c-0.04,0.03-0.09,0.08-0.16,0.16l-0.77,0.95l-0.18,0.65c-0.02,0.05-0.03,0.1-0.03,0.13
		s-0.01,0.06-0.01,0.08c0,0.07,0.02,0.11,0.07,0.12s0.13,0.03,0.25,0.03v0.06H36.4V-10.38z"/>
</g>
<line class="st1" x1="31.62" y1="-9.17" x2="38.12" y2="-9.17"/>
<g>
	<path class="st0" d="M72.27-13.44c0.6,0,1.09,0.14,1.47,0.41c0.38,0.28,0.68,0.63,0.89,1.06c0.21,0.43,0.36,0.9,0.43,1.41
		c0.08,0.51,0.11,1.01,0.11,1.49s-0.04,0.98-0.11,1.49c-0.08,0.51-0.22,0.98-0.43,1.41c-0.21,0.43-0.51,0.78-0.89,1.06
		c-0.38,0.28-0.87,0.41-1.47,0.41c-0.6,0-1.09-0.14-1.47-0.41c-0.38-0.28-0.68-0.63-0.89-1.06c-0.21-0.43-0.36-0.9-0.43-1.41
		c-0.08-0.51-0.11-1.01-0.11-1.49s0.04-0.98,0.11-1.49c0.08-0.51,0.22-0.98,0.43-1.41c0.21-0.43,0.51-0.78,0.89-1.06
		C71.18-13.3,71.67-13.44,72.27-13.44z M72.27-5.84c0.3,0,0.54-0.09,0.74-0.26c0.2-0.17,0.36-0.4,0.47-0.7s0.2-0.63,0.25-1.03
		c0.05-0.39,0.07-0.81,0.07-1.25c0-0.44-0.02-0.85-0.07-1.24s-0.13-0.73-0.25-1.03s-0.27-0.53-0.47-0.7
		c-0.2-0.17-0.45-0.26-0.74-0.26c-0.3,0-0.55,0.09-0.75,0.26c-0.2,0.17-0.35,0.41-0.47,0.7c-0.12,0.3-0.2,0.64-0.25,1.03
		s-0.07,0.8-0.07,1.24c0,0.44,0.02,0.86,0.07,1.25c0.05,0.39,0.13,0.73,0.25,1.03c0.12,0.29,0.27,0.52,0.47,0.7
		C71.71-5.93,71.96-5.84,72.27-5.84z"/>
	<path class="st0" d="M78.04-9.79c0.22,0.01,0.45-0.01,0.67-0.05c0.22-0.04,0.42-0.11,0.6-0.21c0.18-0.1,0.32-0.24,0.43-0.41
		c0.11-0.18,0.16-0.39,0.16-0.65c0-0.36-0.12-0.65-0.37-0.86s-0.56-0.32-0.94-0.32c-0.24,0-0.45,0.05-0.62,0.14
		c-0.18,0.1-0.32,0.23-0.44,0.39s-0.2,0.35-0.26,0.55c-0.06,0.2-0.08,0.41-0.07,0.63h-1.37c0.02-0.41,0.09-0.79,0.23-1.13
		c0.14-0.35,0.32-0.65,0.56-0.91c0.24-0.26,0.52-0.46,0.86-0.6s0.72-0.22,1.14-0.22c0.33,0,0.65,0.05,0.97,0.14
		c0.32,0.1,0.6,0.24,0.85,0.42s0.45,0.42,0.61,0.7c0.15,0.28,0.23,0.61,0.23,0.98c0,0.42-0.1,0.79-0.29,1.11s-0.49,0.55-0.9,0.69
		v0.02c0.48,0.1,0.85,0.33,1.12,0.71c0.27,0.38,0.4,0.84,0.4,1.39c0,0.4-0.08,0.76-0.24,1.07c-0.16,0.32-0.38,0.58-0.65,0.8
		C80.44-5.17,80.13-5,79.77-4.88S79.03-4.7,78.63-4.7c-0.49,0-0.91-0.07-1.28-0.21s-0.67-0.34-0.91-0.59
		c-0.24-0.26-0.43-0.56-0.56-0.92c-0.13-0.36-0.2-0.76-0.2-1.2h1.37c-0.02,0.51,0.11,0.94,0.38,1.28c0.27,0.34,0.67,0.51,1.21,0.51
		c0.46,0,0.84-0.13,1.15-0.39c0.31-0.26,0.46-0.63,0.46-1.11c0-0.33-0.06-0.59-0.19-0.78c-0.13-0.19-0.3-0.34-0.5-0.44
		s-0.44-0.16-0.7-0.19c-0.26-0.02-0.53-0.03-0.8-0.02V-9.79z"/>
</g>
<g>
	<path class="st0" d="M61.02-10.15c0.08-0.01,0.14-0.02,0.17-0.04c0.05-0.03,0.09-0.11,0.12-0.21l0.43-1.55
		c0.01-0.05,0.02-0.09,0.03-0.12c0.01-0.03,0.01-0.06,0.01-0.09c0-0.06-0.02-0.1-0.06-0.12c-0.04-0.02-0.11-0.03-0.21-0.04v-0.06
		h0.9c0.17,0,0.31,0.01,0.44,0.04c0.13,0.03,0.24,0.09,0.35,0.18c0.08,0.07,0.14,0.15,0.19,0.24c0.08,0.14,0.11,0.3,0.11,0.48
		c0,0.35-0.13,0.66-0.41,0.91c-0.3,0.28-0.68,0.42-1.16,0.42h-0.93V-10.15z M62.95-10.83c0.11-0.22,0.16-0.44,0.16-0.66
		c0-0.22-0.05-0.4-0.16-0.55s-0.3-0.22-0.58-0.22c-0.08,0-0.13,0.01-0.16,0.02c-0.03,0.01-0.05,0.04-0.06,0.08l-0.48,1.71
		c-0.01,0.03-0.01,0.06-0.02,0.08c0,0.02,0,0.03,0,0.05c0,0.05,0.02,0.08,0.05,0.1c0.03,0.02,0.09,0.03,0.19,0.03
		C62.39-10.2,62.74-10.41,62.95-10.83z"/>
	<path class="st0" d="M63.48-10.15c0.08-0.02,0.14-0.06,0.18-0.11s0.13-0.19,0.27-0.42l1.02-1.75h0.08l0.34,1.98
		c0.02,0.13,0.05,0.21,0.08,0.24c0.03,0.03,0.09,0.05,0.19,0.06v0.06h-0.86v-0.06c0.1-0.01,0.17-0.02,0.2-0.04
		c0.05-0.02,0.07-0.07,0.07-0.13c0-0.02,0-0.04,0-0.05c0-0.02,0-0.04,0-0.05l-0.08-0.46h-0.75L64-10.49
		c-0.01,0.03-0.03,0.05-0.04,0.08c-0.02,0.05-0.03,0.1-0.03,0.13c0,0.04,0.02,0.08,0.05,0.09c0.03,0.02,0.08,0.03,0.16,0.03v0.06
		h-0.66V-10.15z M64.95-11.01l-0.15-0.91l-0.51,0.91H64.95z"/>
	<path class="st0" d="M65.79-10.15c0.1-0.01,0.18-0.02,0.22-0.04c0.07-0.04,0.12-0.11,0.15-0.21l0.21-0.74l-0.27-0.94
		c-0.03-0.1-0.06-0.16-0.08-0.18c-0.03-0.02-0.09-0.04-0.17-0.05v-0.06h0.83v0.06c-0.08,0-0.14,0.01-0.17,0.02
		c-0.05,0.02-0.08,0.06-0.08,0.11c0,0.02,0,0.04,0.01,0.07s0.01,0.05,0.01,0.06l0.21,0.75l0.39-0.46c0.09-0.1,0.15-0.18,0.18-0.24
		c0.06-0.09,0.09-0.16,0.09-0.2s-0.02-0.08-0.07-0.09c-0.03-0.01-0.08-0.02-0.17-0.02v-0.06h0.73v0.06
		c-0.07,0.01-0.12,0.02-0.16,0.05c-0.04,0.03-0.09,0.08-0.16,0.16l-0.77,0.95l-0.18,0.65c-0.02,0.05-0.03,0.1-0.03,0.13
		s-0.01,0.06-0.01,0.08c0,0.07,0.02,0.11,0.07,0.12s0.13,0.03,0.25,0.03v0.06h-1.01V-10.15z"/>
</g>
<line class="st1" x1="61.02" y1="-8.93" x2="67.51" y2="-8.93"/>
<g>
	<path class="st0" d="M99.29-13.44c0.6,0,1.09,0.14,1.47,0.41c0.38,0.28,0.68,0.63,0.89,1.06c0.21,0.43,0.36,0.9,0.43,1.41
		c0.08,0.51,0.11,1.01,0.11,1.49s-0.04,0.98-0.11,1.49c-0.08,0.51-0.22,0.98-0.43,1.41c-0.21,0.43-0.51,0.78-0.89,1.06
		c-0.38,0.28-0.87,0.41-1.47,0.41c-0.6,0-1.09-0.14-1.47-0.41c-0.38-0.28-0.68-0.63-0.89-1.06c-0.21-0.43-0.36-0.9-0.43-1.41
		c-0.08-0.51-0.11-1.01-0.11-1.49s0.04-0.98,0.11-1.49c0.08-0.51,0.22-0.98,0.43-1.41c0.21-0.43,0.51-0.78,0.89-1.06
		C98.2-13.3,98.68-13.44,99.29-13.44z M99.29-5.84c0.3,0,0.54-0.09,0.74-0.26c0.2-0.17,0.36-0.4,0.47-0.7s0.2-0.63,0.25-1.03
		c0.05-0.39,0.07-0.81,0.07-1.25c0-0.44-0.02-0.85-0.07-1.24s-0.13-0.73-0.25-1.03s-0.27-0.53-0.47-0.7
		c-0.2-0.17-0.45-0.26-0.74-0.26c-0.3,0-0.55,0.09-0.75,0.26c-0.2,0.17-0.35,0.41-0.47,0.7c-0.12,0.3-0.2,0.64-0.25,1.03
		s-0.07,0.8-0.07,1.24c0,0.44,0.02,0.86,0.07,1.25c0.05,0.39,0.13,0.73,0.25,1.03c0.12,0.29,0.27,0.52,0.47,0.7
		C98.73-5.93,98.98-5.84,99.29-5.84z"/>
	<path class="st0" d="M108.58-6.86h-1.08v1.99h-1.3v-1.99h-3.6v-1.36l3.6-5.05h1.3v5.33h1.08V-6.86z M103.67-7.94h2.54v-3.7h-0.02
		L103.67-7.94z"/>
</g>
<g>
	<path class="st0" d="M88.03-10.15c0.08-0.01,0.14-0.02,0.17-0.04c0.05-0.03,0.09-0.11,0.12-0.21l0.43-1.55
		c0.01-0.05,0.02-0.09,0.03-0.12c0.01-0.03,0.01-0.06,0.01-0.09c0-0.06-0.02-0.1-0.06-0.12c-0.04-0.02-0.11-0.03-0.21-0.04v-0.06
		h0.9c0.17,0,0.31,0.01,0.44,0.04c0.13,0.03,0.24,0.09,0.35,0.18c0.08,0.07,0.14,0.15,0.19,0.24c0.08,0.14,0.11,0.3,0.11,0.48
		c0,0.35-0.13,0.66-0.41,0.91c-0.3,0.28-0.68,0.42-1.16,0.42h-0.93V-10.15z M89.97-10.83c0.11-0.22,0.16-0.44,0.16-0.66
		c0-0.22-0.05-0.4-0.16-0.55s-0.3-0.22-0.58-0.22c-0.08,0-0.13,0.01-0.16,0.02c-0.03,0.01-0.05,0.04-0.06,0.08l-0.48,1.71
		c-0.01,0.03-0.01,0.06-0.02,0.08c0,0.02,0,0.03,0,0.05c0,0.05,0.02,0.08,0.05,0.1c0.03,0.02,0.09,0.03,0.19,0.03
		C89.41-10.2,89.76-10.41,89.97-10.83z"/>
	<path class="st0" d="M90.5-10.15c0.08-0.02,0.14-0.06,0.18-0.11s0.13-0.19,0.27-0.42l1.02-1.75h0.08l0.34,1.98
		c0.02,0.13,0.05,0.21,0.08,0.24c0.03,0.03,0.09,0.05,0.19,0.06v0.06h-0.86v-0.06c0.1-0.01,0.17-0.02,0.2-0.04
		c0.05-0.02,0.07-0.07,0.07-0.13c0-0.02,0-0.04,0-0.05c0-0.02,0-0.04,0-0.05l-0.08-0.46h-0.75l-0.22,0.39
		c-0.01,0.03-0.03,0.05-0.04,0.08c-0.02,0.05-0.03,0.1-0.03,0.13c0,0.04,0.02,0.08,0.05,0.09c0.03,0.02,0.08,0.03,0.16,0.03v0.06
		H90.5V-10.15z M91.96-11.01l-0.15-0.91l-0.51,0.91H91.96z"/>
	<path class="st0" d="M92.81-10.15c0.1-0.01,0.18-0.02,0.22-0.04c0.07-0.04,0.12-0.11,0.15-0.21l0.21-0.74l-0.27-0.94
		c-0.03-0.1-0.06-0.16-0.08-0.18c-0.03-0.02-0.09-0.04-0.17-0.05v-0.06h0.83v0.06c-0.08,0-0.14,0.01-0.17,0.02
		c-0.05,0.02-0.08,0.06-0.08,0.11c0,0.02,0,0.04,0.01,0.07s0.01,0.05,0.01,0.06l0.21,0.75l0.39-0.46c0.09-0.1,0.15-0.18,0.18-0.24
		c0.06-0.09,0.09-0.16,0.09-0.2s-0.02-0.08-0.07-0.09c-0.03-0.01-0.08-0.02-0.17-0.02v-0.06h0.73v0.06
		c-0.07,0.01-0.12,0.02-0.16,0.05c-0.04,0.03-0.09,0.08-0.16,0.16l-0.77,0.95l-0.18,0.65c-0.02,0.05-0.03,0.1-0.03,0.13
		s-0.01,0.06-0.01,0.08c0,0.07,0.02,0.11,0.07,0.12s0.13,0.03,0.25,0.03v0.06h-1.01V-10.15z"/>
</g>
<line class="st1" x1="88.03" y1="-8.93" x2="94.53" y2="-8.93"/>
<g>
	<path class="st0" d="M13.44,1.4c0.6,0,1.09,0.14,1.47,0.41c0.38,0.28,0.68,0.63,0.89,1.06c0.21,0.43,0.36,0.9,0.43,1.41
		c0.08,0.51,0.11,1.01,0.11,1.49c0,0.48-0.04,0.98-0.11,1.49s-0.22,0.98-0.43,1.41c-0.21,0.43-0.51,0.78-0.89,1.06
		c-0.38,0.28-0.87,0.41-1.47,0.41S12.35,10,11.97,9.72c-0.38-0.28-0.68-0.63-0.89-1.06c-0.21-0.43-0.36-0.9-0.43-1.41
		s-0.11-1.01-0.11-1.49c0-0.48,0.04-0.98,0.11-1.49c0.08-0.51,0.22-0.98,0.43-1.41c0.21-0.43,0.51-0.78,0.89-1.06
		C12.35,1.54,12.84,1.4,13.44,1.4z M13.44,9c0.3,0,0.54-0.09,0.74-0.26c0.2-0.17,0.36-0.4,0.47-0.7c0.12-0.29,0.2-0.63,0.25-1.03
		c0.05-0.39,0.07-0.81,0.07-1.25c0-0.44-0.02-0.85-0.07-1.24c-0.05-0.39-0.13-0.73-0.25-1.03c-0.12-0.3-0.27-0.53-0.47-0.7
		c-0.2-0.17-0.45-0.26-0.74-0.26c-0.3,0-0.55,0.09-0.75,0.26c-0.2,0.17-0.35,0.41-0.47,0.7c-0.12,0.3-0.2,0.64-0.25,1.03
		c-0.05,0.39-0.07,0.8-0.07,1.24c0,0.44,0.02,0.86,0.07,1.25s0.13,0.73,0.25,1.03c0.12,0.29,0.27,0.52,0.47,0.7
		C12.89,8.91,13.14,9,13.44,9z"/>
	<path class="st0" d="M17.95,1.57h4.34v1.22h-3.32l-0.43,2.14l0.02,0.02c0.18-0.21,0.42-0.37,0.7-0.47
		c0.28-0.11,0.57-0.16,0.85-0.16c0.42,0,0.79,0.07,1.12,0.21c0.33,0.14,0.6,0.34,0.83,0.59s0.39,0.55,0.51,0.89
		c0.12,0.34,0.17,0.72,0.17,1.12c0,0.34-0.05,0.68-0.16,1.04c-0.11,0.36-0.28,0.68-0.52,0.97c-0.24,0.29-0.54,0.53-0.91,0.72
		c-0.37,0.19-0.81,0.28-1.32,0.28c-0.41,0-0.79-0.05-1.13-0.16c-0.35-0.11-0.65-0.27-0.92-0.49c-0.26-0.22-0.47-0.48-0.63-0.8
		C17,8.38,16.91,8.01,16.9,7.58h1.37c0.04,0.46,0.2,0.81,0.47,1.05S19.36,9,19.81,9c0.29,0,0.53-0.05,0.73-0.14
		c0.2-0.1,0.36-0.23,0.49-0.4c0.12-0.17,0.21-0.36,0.26-0.59c0.05-0.22,0.08-0.46,0.08-0.72c0-0.23-0.03-0.45-0.1-0.67
		s-0.16-0.4-0.29-0.56c-0.13-0.16-0.29-0.29-0.5-0.38c-0.2-0.1-0.44-0.14-0.71-0.14c-0.29,0-0.56,0.05-0.81,0.16
		c-0.25,0.11-0.43,0.31-0.55,0.61h-1.37L17.95,1.57z"/>
</g>
<g>
	<path class="st0" d="M2.19,4.69c0.08-0.01,0.14-0.02,0.17-0.04c0.05-0.03,0.09-0.11,0.12-0.21L2.9,2.88
		C2.92,2.84,2.93,2.8,2.93,2.76C2.94,2.73,2.95,2.7,2.95,2.67c0-0.06-0.02-0.1-0.06-0.12C2.85,2.53,2.78,2.52,2.67,2.52V2.46h0.9
		c0.17,0,0.31,0.01,0.44,0.04C4.15,2.54,4.26,2.6,4.37,2.69c0.08,0.07,0.14,0.15,0.19,0.24c0.08,0.14,0.11,0.3,0.11,0.48
		c0,0.35-0.13,0.66-0.41,0.91C3.97,4.6,3.59,4.75,3.11,4.75H2.19V4.69z M4.12,4.01c0.11-0.22,0.16-0.44,0.16-0.66
		c0-0.22-0.05-0.4-0.16-0.55c-0.11-0.15-0.3-0.22-0.58-0.22c-0.08,0-0.13,0.01-0.16,0.02C3.35,2.6,3.32,2.63,3.31,2.67L2.84,4.38
		C2.83,4.42,2.82,4.44,2.82,4.46c0,0.02,0,0.03,0,0.05c0,0.05,0.02,0.08,0.05,0.1c0.03,0.02,0.09,0.03,0.19,0.03
		C3.56,4.63,3.92,4.43,4.12,4.01z"/>
	<path class="st0" d="M4.65,4.69c0.08-0.02,0.14-0.05,0.18-0.11c0.04-0.05,0.13-0.19,0.27-0.42l1.02-1.75h0.08l0.34,1.98
		C6.56,4.52,6.59,4.6,6.62,4.63c0.03,0.03,0.09,0.05,0.19,0.06v0.06H5.95V4.69c0.1-0.01,0.17-0.02,0.2-0.04
		C6.2,4.63,6.22,4.58,6.22,4.52c0-0.02,0-0.04,0-0.05c0-0.02,0-0.04-0.01-0.05L6.14,3.96H5.39L5.17,4.35
		C5.16,4.38,5.14,4.4,5.13,4.43C5.11,4.49,5.1,4.53,5.1,4.56c0,0.04,0.02,0.08,0.05,0.09s0.08,0.03,0.16,0.03v0.06H4.65V4.69z
		 M6.12,3.83L5.97,2.92L5.46,3.83H6.12z"/>
	<path class="st0" d="M6.97,4.69c0.1-0.01,0.18-0.02,0.22-0.04C7.25,4.61,7.3,4.54,7.33,4.43l0.21-0.74L7.27,2.75
		c-0.03-0.1-0.06-0.16-0.08-0.18C7.16,2.55,7.1,2.53,7.01,2.52V2.46h0.83v0.06c-0.08,0-0.14,0.01-0.17,0.02
		C7.62,2.56,7.59,2.6,7.59,2.65c0,0.02,0,0.04,0.01,0.07c0.01,0.03,0.01,0.05,0.02,0.06l0.21,0.75l0.39-0.46
		c0.09-0.1,0.15-0.18,0.18-0.24c0.06-0.09,0.09-0.16,0.09-0.2c0-0.05-0.02-0.08-0.07-0.09C8.39,2.53,8.33,2.52,8.25,2.52V2.46h0.73
		v0.06C8.91,2.53,8.85,2.54,8.82,2.57C8.78,2.6,8.73,2.65,8.66,2.73L7.89,3.68L7.71,4.33c-0.02,0.05-0.03,0.1-0.03,0.13
		C7.67,4.49,7.67,4.51,7.67,4.54c0,0.07,0.02,0.11,0.07,0.12s0.13,0.03,0.25,0.03v0.06H6.97V4.69z"/>
</g>
<line class="st1" x1="2.34" y1="5.9" x2="8.83" y2="5.9"/>
<g>
	<path class="st0" d="M42.98,1.4c0.6,0,1.09,0.14,1.47,0.41c0.38,0.28,0.68,0.63,0.89,1.06c0.21,0.43,0.36,0.9,0.43,1.41
		c0.08,0.51,0.11,1.01,0.11,1.49c0,0.48-0.04,0.98-0.11,1.49s-0.22,0.98-0.43,1.41c-0.21,0.43-0.51,0.78-0.89,1.06
		c-0.38,0.28-0.87,0.41-1.47,0.41c-0.6,0-1.09-0.14-1.47-0.41c-0.38-0.28-0.68-0.63-0.89-1.06c-0.21-0.43-0.36-0.9-0.43-1.41
		s-0.11-1.01-0.11-1.49c0-0.48,0.04-0.98,0.11-1.49c0.08-0.51,0.22-0.98,0.43-1.41c0.21-0.43,0.51-0.78,0.89-1.06
		S42.38,1.4,42.98,1.4z M42.98,9c0.3,0,0.54-0.09,0.74-0.26s0.36-0.4,0.47-0.7c0.12-0.29,0.2-0.63,0.25-1.03
		c0.05-0.39,0.07-0.81,0.07-1.25c0-0.44-0.02-0.85-0.07-1.24C44.4,4.14,44.32,3.8,44.2,3.5c-0.12-0.3-0.27-0.53-0.47-0.7
		s-0.45-0.26-0.74-0.26c-0.3,0-0.55,0.09-0.75,0.26s-0.35,0.41-0.47,0.7s-0.2,0.64-0.25,1.03c-0.05,0.39-0.07,0.8-0.07,1.24
		c0,0.44,0.02,0.86,0.07,1.25s0.13,0.73,0.25,1.03s0.27,0.52,0.47,0.7S42.68,9,42.98,9z"/>
	<path class="st0" d="M50.76,3.69c-0.03-0.34-0.15-0.62-0.37-0.83s-0.5-0.32-0.86-0.32c-0.25,0-0.46,0.05-0.64,0.14
		c-0.18,0.09-0.33,0.21-0.46,0.37c-0.12,0.15-0.22,0.33-0.3,0.52S48,3.97,47.95,4.18c-0.05,0.22-0.08,0.43-0.1,0.64
		c-0.02,0.21-0.04,0.41-0.05,0.59l0.02,0.02c0.18-0.34,0.44-0.59,0.76-0.75s0.67-0.25,1.05-0.25c0.42,0,0.79,0.07,1.12,0.22
		c0.33,0.14,0.61,0.34,0.83,0.59c0.23,0.25,0.4,0.55,0.52,0.89s0.18,0.72,0.18,1.12c0,0.41-0.07,0.79-0.2,1.13
		c-0.13,0.35-0.32,0.65-0.57,0.91s-0.54,0.46-0.89,0.61c-0.34,0.14-0.72,0.22-1.14,0.22c-0.62,0-1.12-0.11-1.52-0.34
		c-0.4-0.23-0.71-0.54-0.94-0.94c-0.23-0.4-0.39-0.86-0.47-1.39s-0.13-1.11-0.13-1.72c0-0.5,0.05-1.01,0.16-1.52s0.29-0.98,0.53-1.4
		S47.7,2.06,48.1,1.8c0.4-0.26,0.9-0.4,1.49-0.4c0.34,0,0.65,0.06,0.95,0.17c0.3,0.11,0.56,0.27,0.79,0.47
		c0.23,0.2,0.41,0.44,0.56,0.72c0.14,0.28,0.22,0.59,0.24,0.94H50.76z M49.44,9c0.25,0,0.46-0.05,0.65-0.15
		c0.18-0.1,0.34-0.23,0.46-0.39c0.12-0.16,0.22-0.35,0.28-0.56c0.06-0.21,0.09-0.43,0.09-0.65c0-0.22-0.03-0.44-0.09-0.65
		c-0.06-0.21-0.15-0.39-0.28-0.55c-0.12-0.16-0.28-0.28-0.46-0.38c-0.18-0.1-0.4-0.14-0.65-0.14s-0.47,0.05-0.65,0.14
		c-0.19,0.09-0.35,0.22-0.47,0.37c-0.13,0.16-0.22,0.34-0.29,0.55c-0.06,0.21-0.1,0.43-0.1,0.66c0,0.23,0.03,0.45,0.1,0.66
		c0.06,0.21,0.16,0.39,0.29,0.56s0.29,0.29,0.47,0.39C48.97,8.95,49.19,9,49.44,9z"/>
</g>
<g>
	<path class="st0" d="M31.73,4.69c0.08-0.01,0.14-0.02,0.17-0.04c0.05-0.03,0.09-0.11,0.12-0.21l0.43-1.55
		c0.01-0.05,0.02-0.09,0.03-0.12c0.01-0.03,0.01-0.06,0.01-0.09c0-0.06-0.02-0.1-0.06-0.12c-0.04-0.02-0.11-0.04-0.21-0.04V2.46h0.9
		c0.17,0,0.31,0.01,0.44,0.04c0.13,0.03,0.24,0.09,0.35,0.18c0.08,0.07,0.14,0.15,0.19,0.24c0.08,0.14,0.11,0.3,0.11,0.48
		c0,0.35-0.13,0.66-0.41,0.91c-0.3,0.28-0.68,0.42-1.16,0.42h-0.93V4.69z M33.67,4.01c0.11-0.22,0.16-0.44,0.16-0.66
		c0-0.22-0.05-0.4-0.16-0.55c-0.11-0.15-0.3-0.22-0.58-0.22c-0.08,0-0.13,0.01-0.16,0.02s-0.05,0.04-0.06,0.08l-0.48,1.71
		c-0.01,0.03-0.02,0.06-0.02,0.08c0,0.02,0,0.03,0,0.05c0,0.05,0.01,0.08,0.05,0.1c0.03,0.02,0.09,0.03,0.19,0.03
		C33.11,4.63,33.46,4.43,33.67,4.01z"/>
	<path class="st0" d="M34.2,4.69c0.08-0.02,0.14-0.05,0.18-0.11c0.04-0.05,0.13-0.19,0.27-0.42l1.02-1.75h0.08l0.34,1.98
		c0.02,0.13,0.05,0.21,0.08,0.24s0.09,0.05,0.19,0.06v0.06h-0.86V4.69c0.1-0.01,0.17-0.02,0.2-0.04c0.05-0.02,0.07-0.07,0.07-0.13
		c0-0.02,0-0.04,0-0.05c0-0.02,0-0.04-0.01-0.05l-0.08-0.46h-0.75l-0.22,0.39c-0.01,0.03-0.03,0.05-0.04,0.08
		c-0.02,0.05-0.03,0.1-0.03,0.13c0,0.04,0.01,0.08,0.04,0.09s0.08,0.03,0.16,0.03v0.06H34.2V4.69z M35.66,3.83l-0.15-0.91
		l-0.51,0.91H35.66z"/>
	<path class="st0" d="M36.51,4.69c0.1-0.01,0.18-0.02,0.22-0.04c0.07-0.04,0.12-0.11,0.15-0.21l0.21-0.74l-0.27-0.94
		c-0.03-0.1-0.06-0.16-0.08-0.18s-0.09-0.04-0.17-0.05V2.46h0.83v0.06c-0.08,0-0.14,0.01-0.17,0.02c-0.05,0.02-0.08,0.06-0.08,0.11
		c0,0.02,0,0.04,0.01,0.07c0.01,0.03,0.01,0.05,0.02,0.06l0.21,0.75l0.39-0.46c0.09-0.1,0.15-0.18,0.18-0.24
		c0.06-0.09,0.09-0.16,0.09-0.2c0-0.05-0.02-0.08-0.07-0.09c-0.03-0.01-0.09-0.02-0.17-0.02V2.46h0.73v0.06
		c-0.07,0.01-0.12,0.03-0.16,0.05c-0.04,0.03-0.09,0.08-0.15,0.16l-0.77,0.95l-0.18,0.65c-0.02,0.05-0.03,0.1-0.03,0.13
		c-0.01,0.03-0.01,0.06-0.01,0.08c0,0.07,0.02,0.11,0.07,0.12s0.13,0.03,0.25,0.03v0.06h-1.01V4.69z"/>
</g>
<line class="st1" x1="31.73" y1="5.9" x2="38.23" y2="5.9"/>
<g>
	<path class="st0" d="M72.38,1.64c0.6,0,1.09,0.14,1.47,0.41c0.38,0.28,0.68,0.63,0.89,1.06S75.1,4,75.17,4.51S75.29,5.52,75.29,6
		c0,0.48-0.04,0.98-0.11,1.49C75.1,8,74.95,8.47,74.74,8.9s-0.51,0.78-0.89,1.06c-0.38,0.28-0.87,0.41-1.47,0.41
		c-0.6,0-1.09-0.14-1.47-0.41c-0.38-0.28-0.68-0.63-0.89-1.06S69.67,8,69.59,7.49C69.52,6.98,69.48,6.48,69.48,6
		c0-0.48,0.04-0.98,0.11-1.49s0.22-0.98,0.43-1.41s0.51-0.78,0.89-1.06C71.29,1.77,71.78,1.64,72.38,1.64z M72.38,9.23
		c0.3,0,0.54-0.09,0.74-0.26c0.2-0.17,0.36-0.4,0.47-0.7c0.12-0.29,0.2-0.63,0.25-1.03c0.05-0.39,0.07-0.81,0.07-1.25
		c0-0.44-0.02-0.85-0.07-1.24c-0.05-0.39-0.13-0.73-0.25-1.03c-0.12-0.3-0.27-0.53-0.47-0.7c-0.2-0.17-0.45-0.26-0.74-0.26
		c-0.3,0-0.55,0.09-0.75,0.26c-0.2,0.17-0.35,0.41-0.47,0.7c-0.12,0.3-0.2,0.64-0.25,1.03c-0.05,0.39-0.07,0.8-0.07,1.24
		c0,0.44,0.02,0.86,0.07,1.25c0.05,0.39,0.13,0.73,0.25,1.03c0.12,0.29,0.27,0.52,0.47,0.7C71.83,9.14,72.08,9.23,72.38,9.23z"/>
	<path class="st0" d="M75.84,1.8h5.75v1.14c-0.44,0.5-0.84,1.01-1.2,1.54c-0.36,0.53-0.67,1.1-0.94,1.69
		c-0.27,0.6-0.49,1.23-0.65,1.89s-0.28,1.38-0.34,2.14h-1.5c0.05-0.66,0.16-1.32,0.34-1.97c0.18-0.65,0.41-1.28,0.7-1.88
		c0.28-0.61,0.61-1.19,0.99-1.75c0.38-0.56,0.78-1.08,1.21-1.57h-4.36V1.8z"/>
</g>
<g>
	<path class="st0" d="M61.13,4.92c0.08-0.01,0.14-0.02,0.17-0.04c0.05-0.03,0.09-0.11,0.12-0.21l0.43-1.55
		c0.01-0.05,0.02-0.09,0.03-0.12c0.01-0.03,0.01-0.06,0.01-0.09c0-0.06-0.02-0.1-0.06-0.12s-0.11-0.03-0.21-0.04V2.7h0.9
		c0.17,0,0.31,0.01,0.44,0.04c0.13,0.03,0.24,0.09,0.35,0.18c0.08,0.07,0.14,0.15,0.19,0.24c0.08,0.14,0.11,0.3,0.11,0.48
		c0,0.35-0.13,0.66-0.41,0.91c-0.3,0.28-0.68,0.42-1.16,0.42h-0.93V4.92z M63.07,4.24c0.11-0.22,0.16-0.44,0.16-0.67
		c0-0.22-0.05-0.4-0.16-0.55c-0.11-0.15-0.3-0.22-0.58-0.22c-0.08,0-0.13,0.01-0.16,0.02s-0.05,0.04-0.06,0.08l-0.48,1.71
		c-0.01,0.03-0.02,0.06-0.02,0.08s0,0.03,0,0.05c0,0.05,0.01,0.08,0.05,0.1c0.03,0.02,0.09,0.03,0.19,0.03
		C62.5,4.87,62.86,4.66,63.07,4.24z"/>
	<path class="st0" d="M63.6,4.92c0.08-0.02,0.14-0.06,0.18-0.11c0.04-0.05,0.13-0.19,0.27-0.42l1.02-1.75h0.08l0.34,1.98
		c0.02,0.13,0.05,0.21,0.08,0.24s0.09,0.05,0.19,0.06v0.06h-0.86V4.92c0.1-0.01,0.17-0.02,0.2-0.04c0.05-0.02,0.07-0.07,0.07-0.13
		c0-0.02,0-0.04,0-0.05c0-0.02,0-0.04-0.01-0.05l-0.08-0.46h-0.75l-0.22,0.39c-0.01,0.03-0.03,0.05-0.04,0.08
		c-0.02,0.05-0.03,0.1-0.03,0.13c0,0.04,0.01,0.08,0.04,0.09c0.03,0.02,0.08,0.03,0.16,0.03v0.06H63.6V4.92z M65.06,4.07l-0.15-0.91
		L64.4,4.07H65.06z"/>
	<path class="st0" d="M65.91,4.92c0.1-0.01,0.18-0.02,0.22-0.04c0.07-0.04,0.12-0.11,0.15-0.21l0.21-0.74l-0.27-0.94
		c-0.03-0.1-0.06-0.16-0.08-0.18c-0.03-0.02-0.09-0.04-0.17-0.05V2.7h0.83v0.06c-0.08,0-0.14,0.01-0.17,0.02
		c-0.05,0.02-0.08,0.06-0.08,0.11c0,0.02,0,0.04,0.01,0.07c0.01,0.03,0.01,0.05,0.02,0.06l0.21,0.75l0.39-0.46
		c0.09-0.1,0.15-0.18,0.18-0.24c0.06-0.09,0.09-0.16,0.09-0.2c0-0.04-0.02-0.08-0.07-0.09c-0.03-0.01-0.09-0.02-0.17-0.02V2.7h0.73
		v0.06c-0.07,0.01-0.12,0.02-0.16,0.05c-0.04,0.03-0.09,0.08-0.15,0.16l-0.77,0.95l-0.18,0.65c-0.02,0.05-0.03,0.1-0.03,0.13
		c-0.01,0.03-0.01,0.06-0.01,0.08c0,0.07,0.02,0.11,0.07,0.12s0.13,0.03,0.25,0.03v0.06h-1.01V4.92z"/>
</g>
<line class="st1" x1="61.13" y1="6.14" x2="67.63" y2="6.14"/>
<g>
	<path class="st0" d="M100.12,1.63c0.6,0,1.09,0.14,1.47,0.41s0.68,0.63,0.89,1.06c0.21,0.43,0.36,0.9,0.43,1.41
		c0.08,0.51,0.11,1.01,0.11,1.49c0,0.48-0.04,0.98-0.11,1.49s-0.22,0.98-0.43,1.41c-0.21,0.43-0.51,0.78-0.89,1.06
		c-0.38,0.28-0.87,0.41-1.47,0.41c-0.6,0-1.09-0.14-1.47-0.41c-0.38-0.28-0.68-0.63-0.89-1.06c-0.21-0.43-0.36-0.9-0.43-1.41
		S97.22,6.48,97.22,6c0-0.48,0.04-0.98,0.11-1.49C97.41,4,97.55,3.53,97.76,3.1c0.21-0.43,0.51-0.78,0.89-1.06
		C99.03,1.77,99.52,1.63,100.12,1.63z M100.12,9.23c0.3,0,0.54-0.09,0.74-0.26c0.2-0.17,0.36-0.4,0.47-0.7s0.2-0.63,0.25-1.03
		s0.07-0.81,0.07-1.25c0-0.44-0.02-0.85-0.07-1.24c-0.05-0.39-0.13-0.73-0.25-1.03s-0.27-0.53-0.47-0.7
		c-0.2-0.17-0.45-0.26-0.74-0.26c-0.3,0-0.55,0.09-0.75,0.26c-0.2,0.17-0.35,0.41-0.47,0.7c-0.12,0.3-0.2,0.64-0.25,1.03
		c-0.05,0.39-0.07,0.8-0.07,1.24c0,0.44,0.02,0.86,0.07,1.25s0.13,0.73,0.25,1.03c0.12,0.29,0.27,0.52,0.47,0.7
		C99.57,9.14,99.82,9.23,100.12,9.23z"/>
	<path class="st0" d="M106.49,10.37c-0.42,0-0.82-0.06-1.18-0.18c-0.36-0.12-0.68-0.29-0.94-0.52c-0.26-0.23-0.47-0.51-0.62-0.83
		c-0.15-0.33-0.22-0.7-0.22-1.1c0-0.53,0.14-0.97,0.41-1.33c0.28-0.36,0.65-0.6,1.12-0.72V5.65c-0.38-0.14-0.68-0.37-0.88-0.67
		c-0.2-0.3-0.31-0.65-0.31-1.06c0-0.72,0.23-1.28,0.68-1.69c0.45-0.4,1.1-0.61,1.94-0.61s1.49,0.2,1.94,0.61
		c0.45,0.4,0.68,0.97,0.68,1.69c0,0.41-0.1,0.76-0.31,1.06c-0.2,0.3-0.5,0.52-0.88,0.67v0.02c0.47,0.12,0.85,0.36,1.12,0.72
		c0.28,0.36,0.41,0.8,0.41,1.33c0,0.41-0.07,0.78-0.22,1.1c-0.15,0.33-0.35,0.61-0.62,0.83c-0.26,0.23-0.58,0.4-0.94,0.52
		C107.31,10.31,106.92,10.37,106.49,10.37z M106.49,9.29c0.46,0,0.84-0.14,1.14-0.41c0.3-0.27,0.46-0.66,0.46-1.15
		c0-0.46-0.15-0.83-0.46-1.09c-0.3-0.26-0.68-0.39-1.14-0.39s-0.84,0.13-1.14,0.39c-0.3,0.26-0.46,0.62-0.46,1.09
		c0,0.5,0.15,0.88,0.46,1.15C105.66,9.15,106.04,9.29,106.49,9.29z M106.49,2.71c-0.37,0-0.68,0.11-0.94,0.33s-0.38,0.54-0.38,0.95
		c0,0.4,0.12,0.71,0.37,0.92s0.56,0.32,0.95,0.32s0.7-0.11,0.95-0.32c0.25-0.21,0.37-0.52,0.37-0.92c0-0.42-0.13-0.73-0.38-0.95
		S106.86,2.71,106.49,2.71z"/>
</g>
<g>
	<path class="st0" d="M88.87,4.92c0.08-0.01,0.14-0.02,0.17-0.04c0.05-0.03,0.09-0.11,0.12-0.21l0.43-1.55
		C89.6,3.07,89.61,3.03,89.62,3c0.01-0.03,0.01-0.06,0.01-0.09c0-0.06-0.02-0.1-0.06-0.12c-0.04-0.02-0.11-0.04-0.21-0.04V2.7h0.9
		c0.17,0,0.31,0.01,0.44,0.04c0.13,0.03,0.24,0.09,0.35,0.18c0.08,0.07,0.14,0.15,0.19,0.24c0.08,0.14,0.11,0.3,0.11,0.48
		c0,0.35-0.13,0.66-0.41,0.91c-0.3,0.28-0.68,0.42-1.16,0.42h-0.93V4.92z M90.8,4.24c0.11-0.22,0.16-0.44,0.16-0.66
		c0-0.22-0.05-0.4-0.16-0.55S90.5,2.8,90.22,2.8c-0.08,0-0.13,0.01-0.16,0.02C90.03,2.84,90,2.86,90,2.9l-0.48,1.71
		c-0.01,0.03-0.01,0.06-0.02,0.08c0,0.02,0,0.03,0,0.05c0,0.05,0.02,0.08,0.05,0.1c0.03,0.02,0.09,0.03,0.19,0.03
		C90.24,4.87,90.6,4.66,90.8,4.24z"/>
	<path class="st0" d="M91.33,4.92c0.08-0.02,0.14-0.05,0.18-0.11c0.04-0.05,0.13-0.19,0.27-0.42l1.02-1.75h0.08l0.34,1.98
		c0.02,0.13,0.05,0.21,0.08,0.24c0.03,0.03,0.09,0.05,0.19,0.06v0.06h-0.86V4.92c0.1-0.01,0.17-0.02,0.2-0.04
		c0.05-0.02,0.07-0.07,0.07-0.13c0-0.02,0-0.04,0-0.05c0-0.02,0-0.04,0-0.05l-0.08-0.46h-0.75l-0.22,0.39
		c-0.01,0.03-0.03,0.05-0.04,0.08c-0.02,0.05-0.03,0.1-0.03,0.13c0,0.04,0.02,0.08,0.05,0.09s0.08,0.03,0.16,0.03v0.06h-0.66V4.92z
		 M92.8,4.06l-0.15-0.91l-0.51,0.91H92.8z"/>
	<path class="st0" d="M93.65,4.92c0.1-0.01,0.18-0.02,0.22-0.04c0.07-0.04,0.12-0.11,0.15-0.21l0.21-0.74l-0.27-0.94
		c-0.03-0.1-0.06-0.16-0.08-0.18c-0.03-0.02-0.09-0.04-0.17-0.05V2.7h0.83v0.06c-0.08,0-0.14,0.01-0.17,0.02
		c-0.05,0.02-0.08,0.06-0.08,0.11c0,0.02,0,0.04,0.01,0.07c0.01,0.03,0.01,0.05,0.01,0.06l0.21,0.75l0.39-0.46
		c0.09-0.1,0.15-0.18,0.18-0.24c0.06-0.09,0.09-0.16,0.09-0.2c0-0.05-0.02-0.08-0.07-0.09c-0.03-0.01-0.08-0.02-0.17-0.02V2.7h0.73
		v0.06c-0.07,0.01-0.12,0.03-0.16,0.05c-0.04,0.03-0.09,0.08-0.16,0.16l-0.77,0.95l-0.18,0.65c-0.02,0.05-0.03,0.1-0.03,0.13
		s-0.01,0.06-0.01,0.08c0,0.07,0.02,0.11,0.07,0.12s0.13,0.03,0.25,0.03v0.06h-1.01V4.92z"/>
</g>
<line class="st1" x1="88.87" y1="6.14" x2="95.37" y2="6.14"/>
<g>
	<text transform="matrix(1 0 0 1 7.8824 29.0901)" class="st0" style="font-family:'HelveticaNeue-Medium'; font-size:12px;">01</text>
</g>
<text transform="matrix(1 0 0 1 -7.629395e-05 23.8669)" class="st0" style="font-family:'Times-Italic'; font-size:3.5px;">Day</text>
<line class="st2" x1="0.11" y1="25.39" x2="6.6" y2="25.39"/>
<text transform="matrix(1 0 0 1 37.4274 29.0901)" class="st0" style="font-family:'HelveticaNeue-Medium'; font-size:12px;">02</text>
<text transform="matrix(1 0 0 1 29.5449 23.8669)" class="st0" style="font-family:'Times-Italic'; font-size:3.5px;">Day</text>
<line class="st2" x1="29.66" y1="25.39" x2="36.15" y2="25.39"/>
<text transform="matrix(1 0 0 1 66.8239 29.3242)" class="st0" style="font-family:'HelveticaNeue-Medium'; font-size:12px;">03</text>
<text transform="matrix(1 0 0 1 58.9414 24.101)" class="st0" style="font-family:'Times-Italic'; font-size:3.5px;">Day</text>
<line class="st2" x1="59.06" y1="25.62" x2="65.54" y2="25.62"/>
<text transform="matrix(1 0 0 1 93.8426 29.3238)" class="st0" style="font-family:'HelveticaNeue-Medium'; font-size:12px;">04</text>
<text transform="matrix(1 0 0 1 85.9601 24.1006)" class="st0" style="font-family:'Times-Italic'; font-size:3.5px;">Day</text>
<line class="st2" x1="86.08" y1="25.62" x2="92.56" y2="25.62"/>
<text transform="matrix(1 0 0 1 7.9974 44.1606)" class="st0" style="font-family:'HelveticaNeue-Medium'; font-size:12px;">05</text>
<text transform="matrix(1 0 0 1 0.1149 38.9374)" class="st0" style="font-family:'Times-Italic'; font-size:3.5px;">Day</text>
<line class="st2" x1="0.23" y1="40.46" x2="6.72" y2="40.46"/>
<text transform="matrix(1 0 0 1 37.5424 44.1605)" class="st0" style="font-family:'HelveticaNeue-Medium'; font-size:12px;">06</text>
<text transform="matrix(1 0 0 1 29.6599 38.9373)" class="st0" style="font-family:'Times-Italic'; font-size:3.5px;">Day</text>
<line class="st2" x1="29.77" y1="40.46" x2="36.26" y2="40.46"/>
<text transform="matrix(1 0 0 1 66.9389 44.3946)" class="st0" style="font-family:'HelveticaNeue-Medium'; font-size:12px;">07</text>
<text transform="matrix(1 0 0 1 59.0565 39.1714)" class="st0" style="font-family:'Times-Italic'; font-size:3.5px;">Day</text>
<line class="st2" x1="59.17" y1="40.69" x2="65.66" y2="40.69"/>
<text transform="matrix(1 0 0 1 94.6776 44.3942)" class="st0" style="font-family:'HelveticaNeue-Medium'; font-size:12px;">08</text>
<text transform="matrix(1 0 0 1 86.7951 39.171)" class="st0" style="font-family:'Times-Italic'; font-size:3.5px;">Day</text>
<line class="st2" x1="86.91" y1="40.69" x2="93.4" y2="40.69"/>
</svg>
