<?xml version="1.0" encoding="utf-8"?>
<!-- Generator: Adobe Illustrator 21.1.0, SVG Export Plug-In . SVG Version: 6.00 Build 0)  -->
<svg version="1.1" xmlns="http://www.w3.org/2000/svg" xmlns:xlink="http://www.w3.org/1999/xlink" x="0px" y="0px"
	 viewBox="0 0 446 48.6" style="enable-background:new 0 0 446 48.6;" xml:space="preserve">
<style type="text/css">
	.st0{fill:none;stroke:#267252;stroke-width:1.5;stroke-linecap:round;stroke-miterlimit:10;}
	.st1{fill:#2B95D2;}
	.st2{fill:#FFFFFF;}
</style>
<g id="line">
	<line class="st0" x1="21.2" y1="33.7" x2="423.8" y2="33.7"/>
</g>
<g id="circle1">
	<g>
		<g>
			<circle class="st1" cx="20.8" cy="33.8" r="10.2"/>
		</g>
		<g>
			<path class="st2" d="M20.8,31.2c0.3,0.6,0.5,1.4,0.5,2.4c0,1-0.1,1.8-0.4,2.4c-0.4,0.9-1.1,1.4-2.1,1.4c-0.9,0-1.5-0.4-1.9-1.1
				c-0.4-0.6-0.5-1.5-0.5-2.5c0-0.8,0.1-1.5,0.3-2.1c0.4-1.1,1.1-1.6,2.1-1.6C19.7,30.1,20.4,30.5,20.8,31.2z M19.9,36
				c0.3-0.4,0.4-1.2,0.4-2.3c0-0.8-0.1-1.5-0.3-2c-0.2-0.5-0.6-0.8-1.2-0.8c-0.5,0-0.9,0.3-1.2,0.8c-0.2,0.5-0.4,1.2-0.4,2.2
				c0,0.7,0.1,1.3,0.2,1.8c0.2,0.7,0.7,1,1.2,1C19.2,36.7,19.6,36.4,19.9,36z"/>
			<path class="st2" d="M22.7,32.2v-0.7c0.7-0.1,1.1-0.2,1.4-0.3c0.3-0.1,0.5-0.5,0.6-1.1h0.7v7.2h-1v-5.1H22.7z"/>
		</g>
	</g>
</g>
<g id="circle2">
	<g>
		<g>
			<circle class="st1" cx="70.9" cy="33.8" r="10.2"/>
		</g>
		<g>
			<path class="st2" d="M70.1,31.2c0.3,0.6,0.5,1.4,0.5,2.4c0,1-0.1,1.8-0.4,2.4C69.7,37,69,37.5,68,37.5c-0.9,0-1.5-0.4-1.9-1.1
				c-0.4-0.6-0.5-1.5-0.5-2.5c0-0.8,0.1-1.5,0.3-2.1c0.4-1.1,1.1-1.6,2.1-1.6C69,30.1,69.6,30.5,70.1,31.2z M69.1,36
				c0.3-0.4,0.4-1.2,0.4-2.3c0-0.8-0.1-1.5-0.3-2c-0.2-0.5-0.6-0.8-1.2-0.8c-0.5,0-0.9,0.3-1.2,0.8c-0.2,0.5-0.4,1.2-0.4,2.2
				c0,0.7,0.1,1.3,0.2,1.8c0.2,0.7,0.7,1,1.2,1C68.5,36.7,68.9,36.5,69.1,36z"/>
			<path class="st2" d="M71.7,35.7c0.2-0.5,0.7-0.9,1.3-1.3l1-0.6c0.4-0.3,0.7-0.5,0.9-0.6c0.3-0.3,0.4-0.6,0.4-1
				c0-0.4-0.1-0.8-0.4-1c-0.3-0.2-0.6-0.4-1-0.4c-0.6,0-1,0.2-1.3,0.7c-0.1,0.3-0.2,0.6-0.2,1h-0.9c0-0.6,0.1-1.1,0.3-1.5
				c0.4-0.7,1.1-1,2.1-1c0.8,0,1.4,0.2,1.8,0.7c0.4,0.4,0.6,0.9,0.6,1.5c0,0.6-0.2,1.1-0.6,1.5c-0.2,0.2-0.7,0.5-1.3,0.9L73.7,35
				c-0.3,0.2-0.6,0.4-0.8,0.5c-0.3,0.3-0.5,0.6-0.6,1h3.9v0.9h-4.9C71.3,36.7,71.5,36.1,71.7,35.7z"/>
		</g>
	</g>
</g>
<g id="circle3">
	<g>
		<g>
			<circle class="st1" cx="121" cy="34" r="10.2"/>
		</g>
		<path class="st2" d="M120.2,31.2c0.3,0.6,0.5,1.4,0.5,2.4c0,1-0.1,1.8-0.4,2.4c-0.4,0.9-1.1,1.4-2.1,1.4c-0.9,0-1.5-0.4-1.9-1.1
			c-0.4-0.6-0.5-1.5-0.5-2.5c0-0.8,0.1-1.5,0.3-2.1c0.4-1.1,1.1-1.6,2.1-1.6C119.1,30,119.7,30.4,120.2,31.2z M119.2,36
			c0.3-0.4,0.4-1.2,0.4-2.3c0-0.8-0.1-1.5-0.3-2c-0.2-0.5-0.6-0.8-1.2-0.8c-0.5,0-0.9,0.3-1.2,0.8c-0.2,0.5-0.4,1.2-0.4,2.2
			c0,0.7,0.1,1.3,0.2,1.8c0.2,0.7,0.7,1,1.2,1C118.6,36.6,119,36.4,119.2,36z"/>
		<path class="st2" d="M121.9,36.7c-0.4-0.5-0.6-1-0.6-1.7h0.9c0,0.5,0.1,0.8,0.3,1c0.2,0.4,0.7,0.6,1.3,0.6c0.5,0,0.9-0.1,1.1-0.4
			c0.3-0.3,0.4-0.6,0.4-1c0-0.5-0.2-0.8-0.5-1c-0.3-0.2-0.7-0.3-1.3-0.3c-0.1,0-0.1,0-0.2,0c-0.1,0-0.1,0-0.2,0v-0.8
			c0.1,0,0.2,0,0.2,0c0.1,0,0.1,0,0.2,0c0.3,0,0.6-0.1,0.8-0.2c0.4-0.2,0.6-0.5,0.6-1c0-0.4-0.1-0.6-0.4-0.8
			c-0.3-0.2-0.6-0.3-0.9-0.3c-0.6,0-1,0.2-1.3,0.6c-0.1,0.2-0.2,0.5-0.2,0.9h-0.9c0-0.5,0.1-1,0.3-1.4c0.4-0.7,1-1,1.9-1
			c0.7,0,1.3,0.2,1.7,0.5c0.4,0.3,0.6,0.8,0.6,1.4c0,0.4-0.1,0.8-0.4,1.1c-0.1,0.2-0.3,0.3-0.6,0.4c0.4,0.1,0.7,0.3,0.9,0.6
			c0.2,0.3,0.3,0.7,0.3,1.1c0,0.7-0.2,1.2-0.7,1.7c-0.5,0.4-1.1,0.6-1.9,0.6C122.9,37.4,122.3,37.2,121.9,36.7z"/>
	</g>
</g>
<g id="circle4">
	<g>
		<circle class="st1" cx="171.1" cy="33.8" r="10.2"/>
		<g>
			<path class="st2" d="M170.2,31.2c0.3,0.6,0.5,1.4,0.5,2.4c0,1-0.1,1.8-0.4,2.4c-0.4,0.9-1.1,1.4-2.1,1.4c-0.9,0-1.5-0.4-1.9-1.1
				c-0.4-0.6-0.5-1.5-0.5-2.5c0-0.8,0.1-1.5,0.3-2.1c0.4-1.1,1.1-1.6,2.1-1.6C169.1,30.1,169.8,30.5,170.2,31.2z M169.3,36
				c0.3-0.4,0.4-1.2,0.4-2.3c0-0.8-0.1-1.5-0.3-2c-0.2-0.5-0.6-0.8-1.2-0.8c-0.5,0-0.9,0.3-1.2,0.8c-0.2,0.5-0.4,1.2-0.4,2.2
				c0,0.7,0.1,1.3,0.2,1.8c0.2,0.7,0.7,1,1.2,1C168.6,36.7,169,36.5,169.3,36z"/>
			<path class="st2" d="M174.5,37.3v-1.8h-3.2v-0.9l3.3-4.6h0.8v4.7h1.1v0.8h-1.1v1.8H174.5z M174.5,34.7v-3.3l-2.3,3.3H174.5z"/>
		</g>
	</g>
</g>
<g id="circle5">
	<g>
		<circle class="st1" cx="221.2" cy="33.8" r="10.2"/>
		<g>
			<path class="st2" d="M220.3,31.2c0.3,0.6,0.5,1.4,0.5,2.4c0,1-0.1,1.8-0.4,2.4c-0.4,0.9-1.1,1.4-2.1,1.4c-0.9,0-1.5-0.4-1.9-1.1
				c-0.4-0.6-0.5-1.5-0.5-2.5c0-0.8,0.1-1.5,0.3-2.1c0.4-1.1,1.1-1.6,2.1-1.6C219.2,30.1,219.9,30.5,220.3,31.2z M219.4,36
				c0.3-0.4,0.4-1.2,0.4-2.3c0-0.8-0.1-1.5-0.3-2c-0.2-0.5-0.6-0.8-1.2-0.8c-0.5,0-0.9,0.3-1.2,0.8c-0.2,0.5-0.4,1.2-0.4,2.2
				c0,0.7,0.1,1.3,0.2,1.8c0.2,0.7,0.7,1,1.2,1C218.7,36.7,219.1,36.4,219.4,36z"/>
			<path class="st2" d="M222.5,35.4c0.1,0.5,0.3,0.9,0.7,1.1c0.2,0.1,0.5,0.2,0.7,0.2c0.5,0,0.9-0.2,1.2-0.5s0.4-0.7,0.4-1.1
				c0-0.5-0.2-0.9-0.5-1.2c-0.3-0.3-0.7-0.4-1.1-0.4c-0.3,0-0.6,0.1-0.8,0.2c-0.2,0.1-0.4,0.3-0.6,0.5l-0.8,0l0.5-3.9h3.7v0.9H223
				l-0.3,2c0.2-0.1,0.3-0.2,0.5-0.3c0.3-0.1,0.6-0.2,0.9-0.2c0.7,0,1.2,0.2,1.7,0.6c0.5,0.4,0.7,1,0.7,1.6c0,0.7-0.2,1.3-0.6,1.8
				c-0.4,0.5-1.1,0.8-2,0.8c-0.6,0-1.1-0.2-1.6-0.5c-0.5-0.3-0.7-0.8-0.8-1.5H222.5z"/>
		</g>
	</g>
</g>
<g id="circle6">
	<g>
		<g>
			<circle class="st1" cx="271.3" cy="33.8" r="10.2"/>
		</g>
		<g>
			<path class="st2" d="M270.4,31.3c0.3,0.6,0.5,1.4,0.5,2.4c0,1-0.1,1.8-0.4,2.4c-0.4,0.9-1.1,1.4-2.1,1.4c-0.9,0-1.5-0.4-1.9-1.1
				c-0.4-0.6-0.5-1.5-0.5-2.5c0-0.8,0.1-1.5,0.3-2.1c0.4-1.1,1.1-1.6,2.1-1.6C269.3,30.1,270,30.5,270.4,31.3z M269.5,36
				c0.3-0.4,0.4-1.2,0.4-2.3c0-0.8-0.1-1.5-0.3-2c-0.2-0.5-0.6-0.8-1.2-0.8c-0.5,0-0.9,0.3-1.2,0.8c-0.2,0.5-0.4,1.2-0.4,2.2
				c0,0.7,0.1,1.3,0.2,1.8c0.2,0.7,0.7,1,1.2,1C268.8,36.7,269.2,36.5,269.5,36z"/>
			<path class="st2" d="M276,30.7c0.3,0.4,0.5,0.8,0.5,1.3h-0.9c-0.1-0.3-0.1-0.5-0.3-0.7c-0.2-0.3-0.5-0.5-1-0.5
				c-0.5,0-0.9,0.2-1.2,0.7c-0.3,0.5-0.5,1.1-0.5,2c0.2-0.3,0.5-0.5,0.8-0.7c0.3-0.1,0.6-0.2,1-0.2c0.6,0,1.1,0.2,1.6,0.6
				c0.4,0.4,0.7,1,0.7,1.7c0,0.7-0.2,1.2-0.6,1.7c-0.4,0.5-1,0.8-1.8,0.8c-0.7,0-1.3-0.3-1.7-0.8c-0.5-0.5-0.7-1.4-0.7-2.6
				c0-0.9,0.1-1.7,0.3-2.3c0.4-1.2,1.2-1.8,2.3-1.8C275.1,30.1,275.7,30.3,276,30.7z M275.3,36.2c0.2-0.3,0.4-0.7,0.4-1.1
				c0-0.4-0.1-0.7-0.3-1.1c-0.2-0.3-0.6-0.5-1.2-0.5c-0.4,0-0.7,0.1-1,0.4c-0.3,0.3-0.4,0.6-0.4,1.2c0,0.5,0.1,0.8,0.4,1.1
				c0.3,0.3,0.6,0.5,1.1,0.5C274.7,36.7,275.1,36.5,275.3,36.2z"/>
		</g>
	</g>
</g>
<g id="circle7">
	<g>
		<circle class="st1" cx="321.3" cy="33.8" r="10.2"/>
		<g>
			<path class="st2" d="M320.4,31.2c0.3,0.6,0.5,1.4,0.5,2.4c0,1-0.1,1.8-0.4,2.4c-0.4,0.9-1.1,1.4-2.1,1.4c-0.9,0-1.5-0.4-1.9-1.1
				c-0.4-0.6-0.5-1.5-0.5-2.5c0-0.8,0.1-1.5,0.3-2.1c0.4-1.1,1.1-1.6,2.1-1.6C319.3,30.1,320,30.5,320.4,31.2z M319.5,36
				c0.3-0.4,0.4-1.2,0.4-2.3c0-0.8-0.1-1.5-0.3-2c-0.2-0.5-0.6-0.8-1.2-0.8c-0.5,0-0.9,0.3-1.2,0.8c-0.2,0.5-0.4,1.2-0.4,2.2
				c0,0.7,0.1,1.3,0.2,1.8c0.2,0.7,0.7,1,1.2,1C318.9,36.7,319.2,36.4,319.5,36z"/>
			<path class="st2" d="M326.7,30.2V31c-0.2,0.2-0.5,0.6-0.9,1.2c-0.4,0.6-0.7,1.2-1,1.8c-0.3,0.6-0.5,1.2-0.7,1.7
				c-0.1,0.3-0.2,0.9-0.4,1.6h-1c0.2-1.4,0.7-2.7,1.5-4.1c0.5-0.8,0.9-1.5,1.4-2.1h-4v-0.9H326.7z"/>
		</g>
	</g>
</g>
<g id="circle8">
	<g>
		<g>
			<circle class="st1" cx="371.4" cy="33.8" r="10.2"/>
		</g>
		<g>
			<path class="st2" d="M370.6,31.2c0.3,0.6,0.5,1.4,0.5,2.4c0,1-0.1,1.8-0.4,2.4c-0.4,0.9-1.1,1.4-2.1,1.4c-0.9,0-1.5-0.4-1.9-1.1
				c-0.4-0.6-0.5-1.5-0.5-2.5c0-0.8,0.1-1.5,0.3-2.1c0.4-1.1,1.1-1.6,2.1-1.6C369.5,30.1,370.1,30.5,370.6,31.2z M369.7,36
				c0.3-0.4,0.4-1.2,0.4-2.3c0-0.8-0.1-1.5-0.3-2c-0.2-0.5-0.6-0.8-1.2-0.8c-0.5,0-0.9,0.3-1.2,0.8c-0.2,0.5-0.4,1.2-0.4,2.2
				c0,0.7,0.1,1.3,0.2,1.8c0.2,0.7,0.7,1,1.2,1C369,36.7,369.4,36.4,369.7,36z"/>
			<path class="st2" d="M372.5,33.1c-0.3-0.3-0.4-0.6-0.4-1c0-0.5,0.2-1,0.6-1.4c0.4-0.4,0.9-0.6,1.7-0.6c0.7,0,1.2,0.2,1.6,0.5
				c0.4,0.4,0.6,0.8,0.6,1.3c0,0.4-0.1,0.8-0.3,1.1c-0.1,0.2-0.3,0.3-0.6,0.5c0.3,0.1,0.5,0.3,0.7,0.5c0.3,0.3,0.5,0.8,0.5,1.3
				c0,0.6-0.2,1.2-0.6,1.6c-0.4,0.4-1,0.7-1.8,0.7c-0.7,0-1.3-0.2-1.8-0.6c-0.5-0.4-0.7-0.9-0.7-1.7c0-0.4,0.1-0.8,0.3-1.1
				s0.5-0.5,0.9-0.7C372.8,33.3,372.6,33.2,372.5,33.1z M375.4,36.3c0.3-0.2,0.4-0.6,0.4-1c0-0.5-0.1-0.8-0.4-1.1
				c-0.3-0.2-0.6-0.4-1.1-0.4c-0.4,0-0.8,0.1-1.1,0.4c-0.3,0.2-0.4,0.6-0.4,1c0,0.4,0.1,0.7,0.4,1s0.6,0.4,1.2,0.4
				C374.8,36.7,375.1,36.6,375.4,36.3z M375.2,32.8c0.2-0.2,0.3-0.5,0.3-0.8c0-0.3-0.1-0.5-0.3-0.7c-0.2-0.2-0.5-0.3-1-0.3
				c-0.4,0-0.7,0.1-0.9,0.3c-0.2,0.2-0.3,0.5-0.3,0.8c0,0.3,0.1,0.6,0.4,0.8c0.3,0.2,0.5,0.3,0.9,0.3C374.7,33.1,375,33,375.2,32.8z
				"/>
		</g>
	</g>
</g>
<g id="circle9">
	<g>
		<g>
			<circle class="st1" cx="421.5" cy="33.8" r="10.2"/>
		</g>
		<g>
			<path class="st2" d="M420.7,31.2c0.3,0.6,0.5,1.4,0.5,2.4c0,1-0.1,1.8-0.4,2.4c-0.4,0.9-1.1,1.4-2.1,1.4c-0.9,0-1.5-0.4-1.9-1.1
				c-0.4-0.6-0.5-1.5-0.5-2.5c0-0.8,0.1-1.5,0.3-2.1c0.4-1.1,1.1-1.6,2.1-1.6C419.6,30.1,420.3,30.5,420.7,31.2z M419.8,36
				c0.3-0.4,0.4-1.2,0.4-2.3c0-0.8-0.1-1.5-0.3-2c-0.2-0.5-0.6-0.8-1.2-0.8c-0.5,0-0.9,0.3-1.2,0.8c-0.2,0.5-0.4,1.2-0.4,2.2
				c0,0.7,0.1,1.3,0.2,1.8c0.2,0.7,0.7,1,1.2,1C419.1,36.7,419.5,36.4,419.8,36z"/>
			<path class="st2" d="M423,35.5c0,0.5,0.2,0.8,0.6,1c0.2,0.1,0.4,0.2,0.6,0.2c0.4,0,0.8-0.2,1.1-0.5c0.3-0.4,0.5-1.1,0.6-2.2
				c-0.2,0.3-0.4,0.5-0.7,0.7c-0.3,0.1-0.6,0.2-1,0.2c-0.7,0-1.2-0.2-1.6-0.6c-0.4-0.4-0.6-1-0.6-1.7c0-0.7,0.2-1.2,0.6-1.7
				c0.4-0.5,1-0.7,1.8-0.7c1,0,1.8,0.5,2.2,1.4c0.2,0.5,0.3,1.2,0.3,1.9c0,0.9-0.1,1.7-0.4,2.3c-0.4,1.1-1.2,1.7-2.2,1.7
				c-0.7,0-1.2-0.2-1.6-0.6c-0.4-0.4-0.5-0.8-0.5-1.4H423z M425.3,33.7c0.3-0.2,0.4-0.6,0.4-1.2c0-0.5-0.1-0.9-0.4-1.2
				c-0.3-0.3-0.6-0.4-1-0.4c-0.4,0-0.8,0.1-1.1,0.4c-0.3,0.3-0.4,0.7-0.4,1.2c0,0.5,0.1,0.8,0.3,1.1s0.6,0.4,1.1,0.4
				C424.7,34.1,425,33.9,425.3,33.7z"/>
		</g>
	</g>
</g>
<g id="tree1">
	<g>
		<line class="st0" x1="45.9" y1="20.4" x2="45.9" y2="33"/>
		<g>
			<g>
				<line class="st0" x1="45.9" y1="8.8" x2="40.5" y2="14.8"/>
				<line class="st0" x1="45.9" y1="13.5" x2="40.5" y2="19.6"/>
				<line class="st0" x1="45.9" y1="18.7" x2="40.5" y2="24.8"/>
			</g>
			<g>
				<line class="st0" x1="45.9" y1="8.8" x2="51.3" y2="14.8"/>
				<line class="st0" x1="45.9" y1="13.5" x2="51.3" y2="19.6"/>
				<line class="st0" x1="45.9" y1="18.7" x2="51.3" y2="24.8"/>
			</g>
		</g>
	</g>
</g>
<g id="tree2">
	<g>
		<line class="st0" x1="95.9" y1="23.9" x2="95.9" y2="33.5"/>
		<g>
			<g>
				<line class="st0" x1="95.8" y1="12.7" x2="90.4" y2="18.7"/>
				<line class="st0" x1="95.8" y1="17.4" x2="90.4" y2="23.5"/>
				<line class="st0" x1="95.8" y1="22.7" x2="90.4" y2="28.7"/>
			</g>
			<g>
				<line class="st0" x1="95.8" y1="12.7" x2="101.3" y2="18.7"/>
				<line class="st0" x1="95.8" y1="17.4" x2="101.3" y2="23.5"/>
				<line class="st0" x1="95.8" y1="22.7" x2="101.3" y2="28.7"/>
			</g>
		</g>
	</g>
</g>
<g id="tree3">
	<g>
		<line class="st0" x1="145.8" y1="19.6" x2="145.8" y2="33.7"/>
		<g>
			<g>
				<line class="st0" x1="145.8" y1="8" x2="140.4" y2="14.1"/>
				<line class="st0" x1="145.8" y1="12.8" x2="140.4" y2="18.8"/>
				<line class="st0" x1="145.8" y1="18" x2="140.4" y2="24.1"/>
			</g>
			<g>
				<line class="st0" x1="145.8" y1="8" x2="151.3" y2="14.1"/>
				<line class="st0" x1="145.8" y1="12.8" x2="151.3" y2="18.8"/>
				<line class="st0" x1="145.8" y1="18" x2="151.3" y2="24.1"/>
			</g>
		</g>
	</g>
</g>
<g id="tree4">
	<g>
		<line class="st0" x1="195.8" y1="23.2" x2="195.8" y2="33.5"/>
		<g>
			<g>
				<line class="st0" x1="195.8" y1="11.9" x2="190.4" y2="17.9"/>
				<line class="st0" x1="195.8" y1="16.7" x2="190.4" y2="22.7"/>
				<line class="st0" x1="195.8" y1="21.9" x2="190.4" y2="28"/>
			</g>
			<g>
				<line class="st0" x1="195.8" y1="11.9" x2="201.3" y2="17.9"/>
				<line class="st0" x1="195.8" y1="16.7" x2="201.3" y2="22.7"/>
				<line class="st0" x1="195.8" y1="21.9" x2="201.3" y2="28"/>
			</g>
		</g>
	</g>
</g>
<g id="tree5">
	<g>
		<line class="st0" x1="245.8" y1="19.3" x2="245.8" y2="33.3"/>
		<g>
			<g>
				<line class="st0" x1="245.8" y1="8" x2="240.4" y2="14.1"/>
				<line class="st0" x1="245.8" y1="12.8" x2="240.4" y2="18.8"/>
				<line class="st0" x1="245.8" y1="18" x2="240.4" y2="24.1"/>
			</g>
			<g>
				<line class="st0" x1="245.8" y1="8" x2="251.2" y2="14.1"/>
				<line class="st0" x1="245.8" y1="12.8" x2="251.2" y2="18.8"/>
				<line class="st0" x1="245.8" y1="18" x2="251.2" y2="24.1"/>
			</g>
		</g>
	</g>
</g>
<g id="tree6">
	<g>
		<line class="st0" x1="295.8" y1="23.2" x2="295.8" y2="33.5"/>
		<g>
			<g>
				<line class="st0" x1="295.8" y1="11.9" x2="290.3" y2="17.9"/>
				<line class="st0" x1="295.8" y1="16.7" x2="290.3" y2="22.7"/>
				<line class="st0" x1="295.8" y1="21.9" x2="290.3" y2="28"/>
			</g>
			<g>
				<line class="st0" x1="295.8" y1="11.9" x2="301.2" y2="17.9"/>
				<line class="st0" x1="295.8" y1="16.7" x2="301.2" y2="22.7"/>
				<line class="st0" x1="295.8" y1="21.9" x2="301.2" y2="28"/>
			</g>
		</g>
	</g>
</g>
<g id="tree7">
	<g>
		<line class="st0" x1="345.8" y1="19.3" x2="345.8" y2="33.3"/>
		<g>
			<g>
				<line class="st0" x1="345.7" y1="8" x2="340.3" y2="14.1"/>
				<line class="st0" x1="345.7" y1="12.8" x2="340.3" y2="18.8"/>
				<line class="st0" x1="345.7" y1="18" x2="340.3" y2="24.1"/>
			</g>
			<g>
				<line class="st0" x1="345.7" y1="8" x2="351.2" y2="14.1"/>
				<line class="st0" x1="345.7" y1="12.8" x2="351.2" y2="18.8"/>
				<line class="st0" x1="345.7" y1="18" x2="351.2" y2="24.1"/>
			</g>
		</g>
	</g>
</g>
<g id="tree8">
	<g>
		<line class="st0" x1="395.7" y1="23.2" x2="395.7" y2="33.5"/>
		<g>
			<g>
				<line class="st0" x1="395.7" y1="11.9" x2="390.3" y2="17.9"/>
				<line class="st0" x1="395.7" y1="16.7" x2="390.3" y2="22.7"/>
				<line class="st0" x1="395.7" y1="21.9" x2="390.3" y2="28"/>
			</g>
			<g>
				<line class="st0" x1="395.7" y1="11.9" x2="401.2" y2="17.9"/>
				<line class="st0" x1="395.7" y1="16.7" x2="401.2" y2="22.7"/>
				<line class="st0" x1="395.7" y1="21.9" x2="401.2" y2="28"/>
			</g>
		</g>
	</g>
</g>
</svg>
