<svg id="Layer_1" data-name="Layer 1" xmlns="http://www.w3.org/2000/svg" viewBox="0 0 24 12"><defs><style>.cls-1{fill:#4a7c6d;}.cls-2{fill:none;stroke:#4a7c6d;stroke-miterlimit:10;stroke-width:0.5px;}</style></defs><title>Artboard 1</title><path class="cls-1" d="M13.325,1.7a2.439,2.439,0,0,1,1.47.414,2.845,2.845,0,0,1,.888,1.056,4.728,4.728,0,0,1,.432,1.41,9.747,9.747,0,0,1,0,2.976,4.723,4.723,0,0,1-.432,1.41,2.85,2.85,0,0,1-.888,1.056,2.446,2.446,0,0,1-1.47.414,2.443,2.443,0,0,1-1.47-.414,2.847,2.847,0,0,1-.888-1.056,4.723,4.723,0,0,1-.432-1.41,9.788,9.788,0,0,1,0-2.976,4.728,4.728,0,0,1,.432-1.41,2.841,2.841,0,0,1,.888-1.056A2.437,2.437,0,0,1,13.325,1.7Zm0,7.6a1.1,1.1,0,0,0,.744-.258,1.751,1.751,0,0,0,.474-.7,4.16,4.16,0,0,0,.246-1.026,10.2,10.2,0,0,0,.072-1.248,10.066,10.066,0,0,0-.072-1.242A4.244,4.244,0,0,0,14.543,3.8a1.748,1.748,0,0,0-.474-.7,1.209,1.209,0,0,0-1.494,0,1.768,1.768,0,0,0-.468.7,4.221,4.221,0,0,0-.246,1.026,10.162,10.162,0,0,0-.072,1.242,10.3,10.3,0,0,0,.072,1.248,4.138,4.138,0,0,0,.246,1.026,1.771,1.771,0,0,0,.468.7A1.1,1.1,0,0,0,13.325,9.3Z"/><path class="cls-1" d="M17,3.261a4.841,4.841,0,0,0,.84-.072,2.623,2.623,0,0,0,.738-.24,1.9,1.9,0,0,0,.564-.432,1.319,1.319,0,0,0,.306-.648h1.116v8.4h-1.5V4.341H17Z"/><path class="cls-1" d="M2.074,4.989a.356.356,0,0,0,.169-.044.39.39,0,0,0,.118-.214L2.79,3.183c.012-.047.022-.087.03-.121a.424.424,0,0,0,.011-.088.125.125,0,0,0-.058-.119.489.489,0,0,0-.214-.037V2.763h.9a1.938,1.938,0,0,1,.441.044.829.829,0,0,1,.352.183.915.915,0,0,1,.191.242,1,1,0,0,1,.113.477,1.218,1.218,0,0,1-.405.913A1.6,1.6,0,0,1,3,5.046H2.074Zm1.935-.684a1.508,1.508,0,0,0,.159-.665.92.92,0,0,0-.161-.55.668.668,0,0,0-.58-.224.431.431,0,0,0-.163.022.114.114,0,0,0-.064.079L2.722,4.682a.631.631,0,0,0-.017.075.32.32,0,0,0,0,.048.109.109,0,0,0,.046.1.424.424,0,0,0,.19.027A1.1,1.1,0,0,0,4.009,4.306Z"/><path class="cls-1" d="M4.54,4.989a.344.344,0,0,0,.184-.107,3.924,3.924,0,0,0,.269-.422L6.015,2.71h.077l.336,1.98a.534.534,0,0,0,.077.238.312.312,0,0,0,.19.061v.057H5.832V4.989a.723.723,0,0,0,.2-.037.133.133,0,0,0,.074-.134c0-.017,0-.035,0-.055s0-.036-.005-.049l-.075-.458H5.278l-.22.393a.631.631,0,0,0-.039.084.391.391,0,0,0-.029.131.1.1,0,0,0,.045.094.357.357,0,0,0,.162.03v.057H4.54ZM6,4.132l-.149-.908-.508.908Z"/><path class="cls-1" d="M6.851,4.989a.647.647,0,0,0,.22-.044.331.331,0,0,0,.149-.214l.206-.742-.267-.94a.4.4,0,0,0-.083-.182A.38.38,0,0,0,6.9,2.819V2.763h.829v.057a.722.722,0,0,0-.174.023.108.108,0,0,0-.078.108.355.355,0,0,0,.01.072.557.557,0,0,0,.015.06l.206.746.387-.458q.129-.155.184-.235a.426.426,0,0,0,.095-.2.092.092,0,0,0-.07-.092.746.746,0,0,0-.17-.019V2.763H8.86v.057a.36.36,0,0,0-.16.051.858.858,0,0,0-.155.159l-.773.948-.18.648a1.173,1.173,0,0,0-.032.13.486.486,0,0,0-.009.081c0,.066.022.107.066.124a.864.864,0,0,0,.247.03v.057H6.851Z"/><line class="cls-2" x1="2.074" y1="6.205" x2="8.57" y2="6.205"/></svg>