<svg id="Layer_1" data-name="Layer 1" xmlns="http://www.w3.org/2000/svg" viewBox="0 0 24 12"><defs><style>.cls-1{fill:#4a7c6d;}.cls-2{fill:none;stroke:#4a7c6d;stroke-miterlimit:10;stroke-width:0.5px;}</style></defs><title>Artboard 3</title><path class="cls-1" d="M13.375,1.7a2.438,2.438,0,0,1,1.47.414,2.845,2.845,0,0,1,.888,1.056,4.728,4.728,0,0,1,.433,1.41,9.747,9.747,0,0,1,0,2.976,4.724,4.724,0,0,1-.433,1.41,2.839,2.839,0,0,1-.888,1.055,2.438,2.438,0,0,1-1.47.414,2.436,2.436,0,0,1-1.47-.414,2.833,2.833,0,0,1-.889-1.055,4.723,4.723,0,0,1-.432-1.41,9.747,9.747,0,0,1,0-2.976,4.727,4.727,0,0,1,.432-1.41,2.838,2.838,0,0,1,.889-1.056A2.436,2.436,0,0,1,13.375,1.7Zm0,7.6a1.1,1.1,0,0,0,.744-.258,1.756,1.756,0,0,0,.474-.7,4.138,4.138,0,0,0,.246-1.026,10.3,10.3,0,0,0,.072-1.248,10.162,10.162,0,0,0-.072-1.242A4.221,4.221,0,0,0,14.593,3.8a1.752,1.752,0,0,0-.474-.7,1.209,1.209,0,0,0-1.494,0,1.763,1.763,0,0,0-.468.7,4.221,4.221,0,0,0-.246,1.026,10.162,10.162,0,0,0-.072,1.242,10.3,10.3,0,0,0,.072,1.248,4.138,4.138,0,0,0,.246,1.026,1.766,1.766,0,0,0,.468.7A1.094,1.094,0,0,0,13.375,9.3Z"/><path class="cls-1" d="M22.615,10.269H16.879a3.422,3.422,0,0,1,.5-1.824,4.628,4.628,0,0,1,1.344-1.356q.409-.3.853-.582a6.667,6.667,0,0,0,.815-.606,3.228,3.228,0,0,0,.612-.7,1.663,1.663,0,0,0,.252-.87,2.365,2.365,0,0,0-.054-.486,1.293,1.293,0,0,0-.21-.48,1.241,1.241,0,0,0-.433-.372,1.5,1.5,0,0,0-.72-.15A1.3,1.3,0,0,0,19.165,3a1.219,1.219,0,0,0-.433.444,2.22,2.22,0,0,0-.239.666,4.721,4.721,0,0,0-.09.828H17.035a4.3,4.3,0,0,1,.186-1.29,2.862,2.862,0,0,1,.559-1.026,2.626,2.626,0,0,1,.905-.678,3.328,3.328,0,0,1,2.526.006,2.472,2.472,0,0,1,.834.636,2.331,2.331,0,0,1,.45.834,3.056,3.056,0,0,1,.132.858,2.522,2.522,0,0,1-.156.912,2.921,2.921,0,0,1-.42.75,4.27,4.27,0,0,1-.6.63q-.337.288-.7.54t-.72.48q-.36.228-.666.456a3.921,3.921,0,0,0-.534.474,1.354,1.354,0,0,0-.312.522h4.093Z"/><path class="cls-1" d="M2.124,4.989a.352.352,0,0,0,.169-.044.393.393,0,0,0,.118-.214L2.84,3.183c.013-.047.022-.087.03-.121a.455.455,0,0,0,.011-.088.125.125,0,0,0-.058-.119.489.489,0,0,0-.214-.037V2.763h.9a1.934,1.934,0,0,1,.44.044.828.828,0,0,1,.353.183.925.925,0,0,1,.191.242,1,1,0,0,1,.112.477,1.218,1.218,0,0,1-.405.913,1.6,1.6,0,0,1-1.155.424H2.124Zm1.935-.684a1.509,1.509,0,0,0,.159-.665.917.917,0,0,0-.161-.55.667.667,0,0,0-.579-.224.431.431,0,0,0-.163.022.112.112,0,0,0-.064.079L2.772,4.682a.713.713,0,0,0-.017.075.267.267,0,0,0,0,.048.11.11,0,0,0,.046.1.428.428,0,0,0,.19.027A1.1,1.1,0,0,0,4.059,4.306Z"/><path class="cls-1" d="M4.59,4.989a.344.344,0,0,0,.184-.107,3.979,3.979,0,0,0,.27-.422L6.065,2.71h.077l.337,1.98a.535.535,0,0,0,.076.238.315.315,0,0,0,.19.061v.057H5.882V4.989a.723.723,0,0,0,.2-.037.132.132,0,0,0,.074-.134c0-.017,0-.035,0-.055s0-.036,0-.049l-.075-.458H5.328l-.221.393a.7.7,0,0,0-.039.084.391.391,0,0,0-.029.131.1.1,0,0,0,.046.094.357.357,0,0,0,.161.03v.057H4.59Zm1.465-.857-.149-.908L5.4,4.132Z"/><path class="cls-1" d="M6.9,4.989a.65.65,0,0,0,.221-.044.329.329,0,0,0,.148-.214l.206-.742-.268-.94a.4.4,0,0,0-.083-.182.382.382,0,0,0-.175-.048V2.763h.829v.057a.727.727,0,0,0-.175.023.108.108,0,0,0-.078.108.363.363,0,0,0,.011.072c.007.031.012.051.015.06l.206.746.387-.458c.086-.1.147-.182.184-.235a.421.421,0,0,0,.095-.2.092.092,0,0,0-.07-.092.738.738,0,0,0-.17-.019V2.763H8.91v.057a.358.358,0,0,0-.159.051.841.841,0,0,0-.155.159l-.773.948-.18.648a1.3,1.3,0,0,0-.032.13.486.486,0,0,0-.009.081c0,.066.022.107.066.124a.864.864,0,0,0,.247.03v.057H6.9Z"/><line class="cls-2" x1="2.124" y1="6.205" x2="8.62" y2="6.205"/></svg>