<svg id="Layer_1" data-name="Layer 1" xmlns="http://www.w3.org/2000/svg" viewBox="0 0 24 12"><defs><style>.cls-1{fill:#4a7c6d;}.cls-2{fill:none;stroke:#4a7c6d;stroke-miterlimit:10;stroke-width:0.5px;}</style></defs><title>Artboard 4</title><path class="cls-1" d="M13.233,1.935a2.438,2.438,0,0,1,1.47.414A2.845,2.845,0,0,1,15.591,3.4a4.728,4.728,0,0,1,.433,1.41,9.747,9.747,0,0,1,0,2.976,4.724,4.724,0,0,1-.433,1.41,2.845,2.845,0,0,1-.888,1.056,2.438,2.438,0,0,1-1.47.414,2.436,2.436,0,0,1-1.47-.414A2.838,2.838,0,0,1,10.875,9.2a4.723,4.723,0,0,1-.432-1.41,9.747,9.747,0,0,1,0-2.976,4.727,4.727,0,0,1,.432-1.41,2.838,2.838,0,0,1,.889-1.056A2.436,2.436,0,0,1,13.233,1.935Zm0,7.6a1.1,1.1,0,0,0,.744-.258,1.756,1.756,0,0,0,.474-.7A4.138,4.138,0,0,0,14.7,7.551,10.3,10.3,0,0,0,14.769,6.3,10.162,10.162,0,0,0,14.7,5.061a4.221,4.221,0,0,0-.246-1.026,1.752,1.752,0,0,0-.474-.7,1.209,1.209,0,0,0-1.494,0,1.763,1.763,0,0,0-.468.7,4.221,4.221,0,0,0-.246,1.026A10.162,10.162,0,0,0,11.7,6.3a10.3,10.3,0,0,0,.072,1.248,4.138,4.138,0,0,0,.246,1.026,1.766,1.766,0,0,0,.468.7A1.094,1.094,0,0,0,13.233,9.531Z"/><path class="cls-1" d="M19,5.583a3.187,3.187,0,0,0,.673-.048,1.857,1.857,0,0,0,.6-.21,1.168,1.168,0,0,0,.426-.414,1.215,1.215,0,0,0,.162-.648A1.1,1.1,0,0,0,20.5,3.4a1.368,1.368,0,0,0-.941-.324,1.24,1.24,0,0,0-1.062.534,1.738,1.738,0,0,0-.258.552,2.089,2.089,0,0,0-.072.63H16.8a3.491,3.491,0,0,1,.229-1.134,2.861,2.861,0,0,1,.558-.906,2.486,2.486,0,0,1,.858-.6,2.866,2.866,0,0,1,1.14-.216,3.3,3.3,0,0,1,.966.144,2.813,2.813,0,0,1,.853.42,2.023,2.023,0,0,1,.834,1.68,2.092,2.092,0,0,1-.288,1.11,1.649,1.649,0,0,1-.9.69V6a1.733,1.733,0,0,1,1.122.714,2.341,2.341,0,0,1,.4,1.386,2.341,2.341,0,0,1-.24,1.074,2.439,2.439,0,0,1-.647.8,3,3,0,0,1-.948.51,3.853,3.853,0,0,1-2.418-.03,2.447,2.447,0,0,1-.912-.594,2.561,2.561,0,0,1-.558-.924,3.737,3.737,0,0,1-.2-1.2h1.368a1.894,1.894,0,0,0,.378,1.278,1.442,1.442,0,0,0,1.206.51,1.716,1.716,0,0,0,1.146-.39,1.374,1.374,0,0,0,.462-1.11,1.4,1.4,0,0,0-.191-.78,1.252,1.252,0,0,0-.5-.438,2.033,2.033,0,0,0-.7-.186A6.643,6.643,0,0,0,19,6.6Z"/><path class="cls-1" d="M1.982,5.223a.352.352,0,0,0,.169-.044.393.393,0,0,0,.118-.214L2.7,3.417c.013-.047.022-.087.03-.121a.455.455,0,0,0,.011-.088.125.125,0,0,0-.058-.119.489.489,0,0,0-.214-.037V3h.9a1.934,1.934,0,0,1,.44.044.828.828,0,0,1,.353.183.925.925,0,0,1,.191.242,1,1,0,0,1,.112.477,1.218,1.218,0,0,1-.405.913,1.6,1.6,0,0,1-1.155.424H1.982ZM3.917,4.54a1.509,1.509,0,0,0,.159-.665.917.917,0,0,0-.161-.55A.667.667,0,0,0,3.336,3.1a.431.431,0,0,0-.163.022.112.112,0,0,0-.064.079L2.63,4.916a.713.713,0,0,0-.017.075.267.267,0,0,0,0,.048.11.11,0,0,0,.046.1.428.428,0,0,0,.19.027A1.1,1.1,0,0,0,3.917,4.54Z"/><path class="cls-1" d="M4.448,5.223a.344.344,0,0,0,.184-.107,3.979,3.979,0,0,0,.27-.422l1.021-1.75H6l.337,1.98a.535.535,0,0,0,.076.238.315.315,0,0,0,.19.061V5.28H5.74V5.223a.723.723,0,0,0,.2-.037.132.132,0,0,0,.074-.134c0-.017,0-.035,0-.055s0-.036,0-.049L5.933,4.49H5.186l-.221.393a.7.7,0,0,0-.039.084A.391.391,0,0,0,4.9,5.1a.1.1,0,0,0,.046.094.357.357,0,0,0,.161.03V5.28H4.448Zm1.465-.857-.149-.908-.508.908Z"/><path class="cls-1" d="M6.758,5.223a.65.65,0,0,0,.221-.044.329.329,0,0,0,.148-.214l.206-.742-.268-.94A.4.4,0,0,0,6.983,3.1a.382.382,0,0,0-.175-.048V3h.829v.057a.727.727,0,0,0-.175.023.108.108,0,0,0-.078.108.363.363,0,0,0,.011.072c.007.031.012.051.015.06l.206.746L8,3.6c.086-.1.147-.182.184-.235a.421.421,0,0,0,.095-.2.092.092,0,0,0-.07-.092.738.738,0,0,0-.17-.019V3h.728v.057a.358.358,0,0,0-.159.051.841.841,0,0,0-.155.159l-.773.948-.18.648a1.3,1.3,0,0,0-.032.13.486.486,0,0,0-.009.081c0,.066.022.107.066.124a.864.864,0,0,0,.247.03V5.28H6.758Z"/><line class="cls-2" x1="1.982" y1="6.439" x2="8.478" y2="6.439"/></svg>