<svg id="Layer_1" data-name="Layer 1" xmlns="http://www.w3.org/2000/svg" viewBox="0 0 24 12"><defs><style>.cls-1{fill:#4a7c6d;}.cls-2{fill:none;stroke:#4a7c6d;stroke-miterlimit:10;stroke-width:0.5px;}</style></defs><title>Artboard 6</title><path class="cls-1" d="M13.44,1.4a2.439,2.439,0,0,1,1.47.414A2.849,2.849,0,0,1,15.8,2.87a4.732,4.732,0,0,1,.432,1.41,9.75,9.75,0,0,1,0,2.977,4.732,4.732,0,0,1-.432,1.41,2.849,2.849,0,0,1-.888,1.056,2.446,2.446,0,0,1-1.47.414,2.443,2.443,0,0,1-1.47-.414,2.845,2.845,0,0,1-.888-1.056,4.732,4.732,0,0,1-.432-1.41,9.791,9.791,0,0,1,0-2.977,4.732,4.732,0,0,1,.432-1.41,2.845,2.845,0,0,1,.888-1.056A2.437,2.437,0,0,1,13.44,1.4Zm0,7.6a1.1,1.1,0,0,0,.744-.258,1.75,1.75,0,0,0,.474-.7A4.166,4.166,0,0,0,14.9,7.017a10.2,10.2,0,0,0,.072-1.248A10.08,10.08,0,0,0,14.9,4.527,4.246,4.246,0,0,0,14.658,3.5a1.748,1.748,0,0,0-.474-.7,1.208,1.208,0,0,0-1.494,0,1.768,1.768,0,0,0-.468.7,4.222,4.222,0,0,0-.246,1.025A10.176,10.176,0,0,0,11.9,5.769a10.3,10.3,0,0,0,.072,1.248,4.143,4.143,0,0,0,.246,1.026,1.769,1.769,0,0,0,.468.7A1.1,1.1,0,0,0,13.44,9Z"/><path class="cls-1" d="M17.952,1.569H22.3V2.793H18.972L18.54,4.929l.024.023a1.751,1.751,0,0,1,.7-.474,2.357,2.357,0,0,1,.846-.162,2.825,2.825,0,0,1,1.116.21,2.3,2.3,0,0,1,.828.588,2.556,2.556,0,0,1,.51.895,3.462,3.462,0,0,1,.175,1.115,3.58,3.58,0,0,1-.162,1.038,2.85,2.85,0,0,1-.517.973,2.745,2.745,0,0,1-.905.72,2.878,2.878,0,0,1-1.32.282A3.828,3.828,0,0,1,18.7,9.975a2.7,2.7,0,0,1-.918-.486,2.364,2.364,0,0,1-.63-.8A2.71,2.71,0,0,1,16.9,7.58h1.368a1.53,1.53,0,0,0,.468,1.051A1.555,1.555,0,0,0,19.812,9a1.685,1.685,0,0,0,.732-.144,1.283,1.283,0,0,0,.486-.4,1.576,1.576,0,0,0,.264-.588,3.16,3.16,0,0,0,.078-.72,2.3,2.3,0,0,0-.1-.666,1.652,1.652,0,0,0-.288-.558,1.39,1.39,0,0,0-.5-.385,1.667,1.667,0,0,0-.714-.144,2.027,2.027,0,0,0-.81.162,1.007,1.007,0,0,0-.546.605H17.052Z"/><path class="cls-1" d="M2.189,4.689a.356.356,0,0,0,.169-.044.39.39,0,0,0,.118-.214L2.9,2.883c.012-.047.022-.087.03-.121a.416.416,0,0,0,.011-.088.124.124,0,0,0-.058-.118.488.488,0,0,0-.214-.037V2.462h.9a1.909,1.909,0,0,1,.441.045.822.822,0,0,1,.352.183.922.922,0,0,1,.191.242,1,1,0,0,1,.113.478,1.217,1.217,0,0,1-.405.912,1.6,1.6,0,0,1-1.155.424H2.189Zm1.935-.684a1.5,1.5,0,0,0,.159-.664.922.922,0,0,0-.161-.551.668.668,0,0,0-.58-.224.429.429,0,0,0-.163.022.114.114,0,0,0-.064.078L2.836,4.381a.631.631,0,0,0-.017.075.325.325,0,0,0,0,.048.108.108,0,0,0,.046.1.424.424,0,0,0,.19.027A1.1,1.1,0,0,0,4.124,4.005Z"/><path class="cls-1" d="M4.655,4.689a.338.338,0,0,0,.184-.107,3.87,3.87,0,0,0,.269-.422l1.022-1.75h.077l.336,1.98a.531.531,0,0,0,.077.238.312.312,0,0,0,.19.061v.057H5.947V4.689a.723.723,0,0,0,.2-.037.132.132,0,0,0,.074-.134c0-.017,0-.035,0-.055s0-.035-.005-.049L6.14,3.956H5.393l-.22.393a.66.66,0,0,0-.039.084.4.4,0,0,0-.029.132.1.1,0,0,0,.045.094.351.351,0,0,0,.162.03v.057H4.655Zm1.464-.857L5.97,2.924l-.508.907Z"/><path class="cls-1" d="M6.965,4.689a.647.647,0,0,0,.22-.044.329.329,0,0,0,.149-.214L7.54,3.69l-.267-.94a.4.4,0,0,0-.083-.182.373.373,0,0,0-.175-.049V2.462h.829v.057a.777.777,0,0,0-.174.023.108.108,0,0,0-.078.108.352.352,0,0,0,.01.071.525.525,0,0,0,.015.06l.206.746.387-.459c.086-.1.147-.182.184-.235a.425.425,0,0,0,.095-.2.092.092,0,0,0-.07-.093.776.776,0,0,0-.17-.019V2.462h.728v.057a.366.366,0,0,0-.16.051.874.874,0,0,0-.155.159l-.773.948-.18.648a1.173,1.173,0,0,0-.032.13.481.481,0,0,0-.009.08c0,.066.022.107.066.124a.869.869,0,0,0,.247.029v.057H6.965Z"/><line class="cls-2" x1="2.337" y1="5.905" x2="8.833" y2="5.905"/></svg>