<svg id="Layer_1" data-name="Layer 1" xmlns="http://www.w3.org/2000/svg" viewBox="0 0 24 12"><defs><style>.cls-1{fill:#4a7c6d;}.cls-2{fill:none;stroke:#4a7c6d;stroke-miterlimit:10;stroke-width:0.5px;}</style></defs><title>Artboard 7</title><path class="cls-1" d="M13.489,1.4a2.441,2.441,0,0,1,1.471.414,2.849,2.849,0,0,1,.888,1.056,4.732,4.732,0,0,1,.432,1.41,9.75,9.75,0,0,1,0,2.977,4.732,4.732,0,0,1-.432,1.41,2.849,2.849,0,0,1-.888,1.056,2.448,2.448,0,0,1-1.471.414,2.444,2.444,0,0,1-1.47-.414,2.849,2.849,0,0,1-.888-1.056,4.733,4.733,0,0,1-.433-1.41,9.833,9.833,0,0,1,0-2.977,4.733,4.733,0,0,1,.433-1.41,2.849,2.849,0,0,1,.888-1.056A2.438,2.438,0,0,1,13.489,1.4Zm0,7.6a1.1,1.1,0,0,0,.744-.258,1.745,1.745,0,0,0,.475-.7,4.188,4.188,0,0,0,.245-1.026,10.1,10.1,0,0,0,.072-1.248,9.985,9.985,0,0,0-.072-1.242A4.269,4.269,0,0,0,14.708,3.5a1.744,1.744,0,0,0-.475-.7,1.208,1.208,0,0,0-1.494,0,1.773,1.773,0,0,0-.468.7,4.222,4.222,0,0,0-.246,1.025,10.176,10.176,0,0,0-.072,1.242,10.3,10.3,0,0,0,.072,1.248,4.143,4.143,0,0,0,.246,1.026,1.775,1.775,0,0,0,.468.7A1.1,1.1,0,0,0,13.489,9Z"/><path class="cls-1" d="M21.266,3.693a1.31,1.31,0,0,0-.366-.834,1.159,1.159,0,0,0-.857-.318,1.351,1.351,0,0,0-1.1.5,1.9,1.9,0,0,0-.3.521,4.247,4.247,0,0,0-.186.618,5.15,5.15,0,0,0-.1.642c-.02.212-.038.41-.054.595l.023.023a1.771,1.771,0,0,1,.763-.75,2.291,2.291,0,0,1,1.05-.246,2.759,2.759,0,0,1,1.116.216,2.434,2.434,0,0,1,.834.595,2.591,2.591,0,0,1,.521.894,3.361,3.361,0,0,1,.181,1.116,3.172,3.172,0,0,1-.2,1.134,2.675,2.675,0,0,1-.57.912,2.611,2.611,0,0,1-.888.606,2.934,2.934,0,0,1-1.141.216A3.02,3.02,0,0,1,18.476,9.8a2.5,2.5,0,0,1-.936-.937,4.092,4.092,0,0,1-.475-1.392,10.586,10.586,0,0,1-.132-1.723A7.334,7.334,0,0,1,17.1,4.221a4.606,4.606,0,0,1,.534-1.4A3.07,3.07,0,0,1,18.607,1.8a2.912,2.912,0,0,1,2.442-.229,2.576,2.576,0,0,1,.786.468,2.419,2.419,0,0,1,.558.721,2.251,2.251,0,0,1,.24.936ZM19.945,9a1.344,1.344,0,0,0,.648-.149,1.469,1.469,0,0,0,.462-.391,1.622,1.622,0,0,0,.276-.558,2.4,2.4,0,0,0,.09-.654,2.34,2.34,0,0,0-.09-.647,1.565,1.565,0,0,0-.276-.546,1.419,1.419,0,0,0-.462-.378,1.378,1.378,0,0,0-.648-.145,1.456,1.456,0,0,0-.653.139,1.4,1.4,0,0,0-.475.371,1.6,1.6,0,0,0-.288.547,2.321,2.321,0,0,0,0,1.319,1.734,1.734,0,0,0,.288.559,1.394,1.394,0,0,0,.475.39A1.418,1.418,0,0,0,19.945,9Z"/><path class="cls-1" d="M2.239,4.689a.36.36,0,0,0,.169-.044.386.386,0,0,0,.117-.214l.43-1.548c.012-.047.022-.087.029-.121A.39.39,0,0,0,3,2.674a.123.123,0,0,0-.059-.118.488.488,0,0,0-.214-.037V2.462h.9a1.913,1.913,0,0,1,.441.045.823.823,0,0,1,.352.183.913.913,0,0,1,.191.242,1,1,0,0,1,.113.478,1.217,1.217,0,0,1-.405.912,1.6,1.6,0,0,1-1.155.424H2.239Zm1.935-.684a1.5,1.5,0,0,0,.158-.664.925.925,0,0,0-.16-.551.669.669,0,0,0-.58-.224.429.429,0,0,0-.163.022.116.116,0,0,0-.064.078L2.887,4.381a.566.566,0,0,0-.018.075.406.406,0,0,0,0,.048.107.107,0,0,0,.046.1.42.42,0,0,0,.189.027A1.1,1.1,0,0,0,4.174,4.005Z"/><path class="cls-1" d="M4.705,4.689a.338.338,0,0,0,.184-.107,3.819,3.819,0,0,0,.269-.422L6.18,2.409h.077l.336,1.98a.53.53,0,0,0,.077.238.309.309,0,0,0,.189.061v.057H6V4.689a.723.723,0,0,0,.2-.037.133.133,0,0,0,.073-.134c0-.017,0-.035,0-.055s0-.035-.006-.049L6.19,3.956H5.442l-.22.393a.6.6,0,0,0-.039.084.4.4,0,0,0-.029.132.1.1,0,0,0,.045.094.352.352,0,0,0,.162.03v.057H4.705Zm1.464-.857-.148-.907-.508.907Z"/><path class="cls-1" d="M7.016,4.689a.643.643,0,0,0,.22-.044.331.331,0,0,0,.149-.214L7.59,3.69l-.267-.94a.4.4,0,0,0-.084-.182.371.371,0,0,0-.175-.049V2.462h.829v.057a.771.771,0,0,0-.174.023.107.107,0,0,0-.078.108.344.344,0,0,0,.01.071.409.409,0,0,0,.016.06l.206.746.387-.459c.086-.1.146-.182.184-.235a.43.43,0,0,0,.095-.2.092.092,0,0,0-.07-.093.785.785,0,0,0-.17-.019V2.462h.728v.057a.369.369,0,0,0-.16.051.892.892,0,0,0-.154.159l-.773.948-.18.648a1.072,1.072,0,0,0-.032.13.481.481,0,0,0-.009.08c0,.066.021.107.065.124a.869.869,0,0,0,.247.029v.057H7.016Z"/><line class="cls-2" x1="2.239" y1="5.905" x2="8.735" y2="5.905"/></svg>