<svg id="Layer_1" data-name="Layer 1" xmlns="http://www.w3.org/2000/svg" viewBox="0 0 24 12"><defs><style>.cls-1{fill:#4a7c6d;}.cls-2{fill:none;stroke:#4a7c6d;stroke-miterlimit:10;stroke-width:0.5px;}</style></defs><title>Artboard 8</title><path class="cls-1" d="M13.347,1.635a2.441,2.441,0,0,1,1.471.414A2.841,2.841,0,0,1,15.706,3.1a4.724,4.724,0,0,1,.433,1.41,9.827,9.827,0,0,1,0,2.976,4.715,4.715,0,0,1-.433,1.41,2.841,2.841,0,0,1-.888,1.056,2.441,2.441,0,0,1-1.471.414,2.433,2.433,0,0,1-1.469-.414A2.834,2.834,0,0,1,10.99,8.9a4.714,4.714,0,0,1-.432-1.41,9.744,9.744,0,0,1,0-2.976A4.723,4.723,0,0,1,10.99,3.1a2.834,2.834,0,0,1,.889-1.056A2.433,2.433,0,0,1,13.347,1.635Zm0,7.6a1.1,1.1,0,0,0,.744-.258,1.749,1.749,0,0,0,.475-.7,4.22,4.22,0,0,0,.246-1.026A10.3,10.3,0,0,0,14.884,6a10.148,10.148,0,0,0-.072-1.241,4.312,4.312,0,0,0-.246-1.026,1.744,1.744,0,0,0-.475-.7,1.211,1.211,0,0,0-1.494,0,1.772,1.772,0,0,0-.467.7,4.131,4.131,0,0,0-.246,1.026A9.957,9.957,0,0,0,11.812,6a10.1,10.1,0,0,0,.072,1.248,4.048,4.048,0,0,0,.246,1.026,1.777,1.777,0,0,0,.467.7A1.1,1.1,0,0,0,13.347,9.231Z"/><path class="cls-1" d="M16.8,1.8h5.748v1.14a15.067,15.067,0,0,0-1.2,1.542,11.227,11.227,0,0,0-.941,1.692,11.463,11.463,0,0,0-.654,1.89A12.494,12.494,0,0,0,19.42,10.2h-1.5a10.128,10.128,0,0,1,.342-1.968,12,12,0,0,1,.7-1.884A12.9,12.9,0,0,1,19.948,4.6,14.908,14.908,0,0,1,21.16,3.027H16.8Z"/><path class="cls-1" d="M2.1,4.923a.36.36,0,0,0,.169-.044.386.386,0,0,0,.117-.214l.43-1.549c.012-.047.022-.087.029-.12a.4.4,0,0,0,.012-.088A.125.125,0,0,0,2.8,2.789a.491.491,0,0,0-.214-.036V2.7h.9a1.973,1.973,0,0,1,.441.044.837.837,0,0,1,.352.184.9.9,0,0,1,.191.242,1,1,0,0,1,.113.477,1.219,1.219,0,0,1-.405.913,1.606,1.606,0,0,1-1.155.424H2.1ZM4.032,4.24a1.511,1.511,0,0,0,.158-.665.922.922,0,0,0-.16-.55A.669.669,0,0,0,3.45,2.8a.433.433,0,0,0-.163.021.116.116,0,0,0-.064.079L2.745,4.616a.566.566,0,0,0-.018.075.393.393,0,0,0,0,.048.109.109,0,0,0,.046.1.42.42,0,0,0,.189.027A1.1,1.1,0,0,0,4.032,4.24Z"/><path class="cls-1" d="M4.563,4.923a.35.35,0,0,0,.184-.107,3.925,3.925,0,0,0,.269-.422l1.022-1.75h.077l.336,1.98a.535.535,0,0,0,.077.238.309.309,0,0,0,.189.061V4.98H5.855V4.923a.723.723,0,0,0,.2-.037.134.134,0,0,0,.073-.134c0-.017,0-.035,0-.055s0-.036-.006-.05L6.048,4.19H5.3l-.22.394a.552.552,0,0,0-.039.084.386.386,0,0,0-.029.131.1.1,0,0,0,.045.095.365.365,0,0,0,.162.03V4.98H4.563Zm1.464-.857-.148-.908-.508.908Z"/><path class="cls-1" d="M6.874,4.923a.643.643,0,0,0,.22-.044.336.336,0,0,0,.149-.214l.205-.742-.267-.939A.4.4,0,0,0,7.1,2.8a.386.386,0,0,0-.175-.048V2.7h.829v.057a.67.67,0,0,0-.174.023.107.107,0,0,0-.078.107.352.352,0,0,0,.01.072.45.45,0,0,0,.016.06l.206.745L8.118,3.3c.086-.1.146-.183.184-.235a.432.432,0,0,0,.095-.2.091.091,0,0,0-.07-.092.725.725,0,0,0-.17-.019V2.7h.728v.057a.356.356,0,0,0-.16.051.859.859,0,0,0-.154.159L7.8,3.911l-.18.647a1.072,1.072,0,0,0-.032.13.491.491,0,0,0-.009.081c0,.065.021.106.065.123a.859.859,0,0,0,.247.03V4.98H6.874Z"/><line class="cls-2" x1="2.097" y1="6.139" x2="8.593" y2="6.139"/></svg>