<svg id="Layer_1" data-name="Layer 1" xmlns="http://www.w3.org/2000/svg" viewBox="0 0 23.088 12"><defs><style>.cls-1{fill:#4a7c6d;}.cls-2{fill:none;stroke:#4a7c6d;stroke-miterlimit:10;stroke-width:0.5px;}</style></defs><title>Artboard 9</title><path class="cls-1" d="M12.832,1.634a2.438,2.438,0,0,1,1.47.414A2.849,2.849,0,0,1,15.189,3.1a4.733,4.733,0,0,1,.433,1.41,9.75,9.75,0,0,1,0,2.977,4.733,4.733,0,0,1-.433,1.41A2.849,2.849,0,0,1,14.3,9.956a2.444,2.444,0,0,1-1.47.414,2.442,2.442,0,0,1-1.47-.414A2.842,2.842,0,0,1,10.474,8.9a4.732,4.732,0,0,1-.432-1.41,9.75,9.75,0,0,1,0-2.977,4.732,4.732,0,0,1,.432-1.41,2.842,2.842,0,0,1,.889-1.056A2.436,2.436,0,0,1,12.832,1.634Zm0,7.6a1.1,1.1,0,0,0,.744-.258,1.754,1.754,0,0,0,.474-.7A4.143,4.143,0,0,0,14.3,7.25,10.3,10.3,0,0,0,14.368,6,10.176,10.176,0,0,0,14.3,4.76a4.222,4.222,0,0,0-.246-1.025,1.752,1.752,0,0,0-.474-.7,1.208,1.208,0,0,0-1.494,0,1.763,1.763,0,0,0-.468.7,4.222,4.222,0,0,0-.246,1.025A10.176,10.176,0,0,0,11.3,6a10.3,10.3,0,0,0,.072,1.248,4.143,4.143,0,0,0,.246,1.026,1.764,1.764,0,0,0,.468.7A1.094,1.094,0,0,0,12.832,9.23Z"/><path class="cls-1" d="M19.2,10.37a3.756,3.756,0,0,1-1.183-.181,2.723,2.723,0,0,1-.941-.521,2.381,2.381,0,0,1-.618-.834,2.65,2.65,0,0,1-.222-1.1A2.124,2.124,0,0,1,16.654,6.4a1.981,1.981,0,0,1,1.122-.72V5.655a1.793,1.793,0,0,1-.883-.666,1.845,1.845,0,0,1-.306-1.063,2.142,2.142,0,0,1,.678-1.686A2.814,2.814,0,0,1,19.2,1.634a2.811,2.811,0,0,1,1.938.606,2.143,2.143,0,0,1,.679,1.686,1.845,1.845,0,0,1-.307,1.063,1.8,1.8,0,0,1-.882.666v.023a1.987,1.987,0,0,1,1.122.72,2.124,2.124,0,0,1,.414,1.332,2.666,2.666,0,0,1-.222,1.1,2.393,2.393,0,0,1-.618.834,2.728,2.728,0,0,1-.942.521A3.75,3.75,0,0,1,19.2,10.37Zm0-1.08a1.643,1.643,0,0,0,1.14-.408A1.466,1.466,0,0,0,20.8,7.73a1.354,1.354,0,0,0-.456-1.086,1.863,1.863,0,0,0-2.28,0,1.354,1.354,0,0,0-.455,1.086,1.466,1.466,0,0,0,.455,1.152A1.647,1.647,0,0,0,19.2,9.29Zm0-6.576a1.389,1.389,0,0,0-.937.33A1.189,1.189,0,0,0,17.884,4a1.14,1.14,0,0,0,.372.918,1.571,1.571,0,0,0,1.9,0A1.143,1.143,0,0,0,20.523,4a1.189,1.189,0,0,0-.384-.954A1.386,1.386,0,0,0,19.2,2.714Z"/><path class="cls-1" d="M1.581,4.922a.352.352,0,0,0,.169-.044.393.393,0,0,0,.118-.214L2.3,3.116c.013-.047.022-.087.03-.121a.446.446,0,0,0,.011-.088.125.125,0,0,0-.058-.118.488.488,0,0,0-.214-.037V2.7h.9a1.9,1.9,0,0,1,.44.045.821.821,0,0,1,.353.183.933.933,0,0,1,.191.242,1,1,0,0,1,.112.478,1.217,1.217,0,0,1-.405.912,1.6,1.6,0,0,1-1.155.424H1.581Zm1.935-.684a1.505,1.505,0,0,0,.159-.664.919.919,0,0,0-.161-.551A.667.667,0,0,0,2.935,2.8a.429.429,0,0,0-.163.022.112.112,0,0,0-.064.078L2.229,4.615a.713.713,0,0,0-.017.075.271.271,0,0,0,0,.048.109.109,0,0,0,.046.1.428.428,0,0,0,.19.027A1.1,1.1,0,0,0,3.516,4.239Z"/><path class="cls-1" d="M4.047,4.922a.338.338,0,0,0,.184-.107,3.923,3.923,0,0,0,.27-.422l1.021-1.75H5.6l.337,1.98a.533.533,0,0,0,.076.238.315.315,0,0,0,.19.061v.057H5.339V4.922a.723.723,0,0,0,.2-.037.132.132,0,0,0,.074-.134c0-.017,0-.035,0-.055s0-.035,0-.049L5.532,4.19H4.785l-.221.393a.735.735,0,0,0-.039.084A.4.4,0,0,0,4.5,4.8a.1.1,0,0,0,.046.094.35.35,0,0,0,.161.03v.057H4.047Zm1.465-.857-.149-.907-.508.907Z"/><path class="cls-1" d="M6.357,4.922a.65.65,0,0,0,.221-.044.327.327,0,0,0,.148-.214l.206-.741-.268-.94A.4.4,0,0,0,6.582,2.8a.375.375,0,0,0-.175-.049V2.7h.829v.057a.782.782,0,0,0-.175.023.108.108,0,0,0-.078.108.359.359,0,0,0,.011.071c.007.031.012.051.015.06l.206.746L7.6,3.3c.086-.1.147-.182.184-.235a.42.42,0,0,0,.095-.2.092.092,0,0,0-.07-.093.767.767,0,0,0-.17-.019V2.7h.728v.057a.364.364,0,0,0-.159.051.857.857,0,0,0-.155.159l-.773.948-.18.648a1.3,1.3,0,0,0-.032.13.481.481,0,0,0-.009.08c0,.066.022.107.066.124a.869.869,0,0,0,.247.029v.057H6.357Z"/><line class="cls-2" x1="1.581" y1="6.139" x2="8.077" y2="6.139"/></svg>