<?xml version="1.0" encoding="utf-8"?>
<!-- Generator: Adobe Illustrator 21.1.0, SVG Export Plug-In . SVG Version: 6.00 Build 0)  -->
<svg version="1.1" id="Layer_1" xmlns="http://www.w3.org/2000/svg" xmlns:xlink="http://www.w3.org/1999/xlink" x="0px" y="0px"
	 viewBox="0 0 58.1 30" style="enable-background:new 0 0 58.1 30;" xml:space="preserve">
<style type="text/css">
	.st0{fill:none;stroke:#0C8040;stroke-width:1.0479;stroke-linecap:round;stroke-miterlimit:10;}
	.st1{fill:none;stroke:#0C8040;stroke-width:1.8431;stroke-linecap:round;stroke-miterlimit:10;}
	.st2{fill:none;stroke:#0C8040;stroke-width:1.6;stroke-linecap:round;stroke-miterlimit:10;}
	.st3{fill:none;stroke:#0C8040;stroke-width:1.4;stroke-linecap:round;stroke-miterlimit:10;}
</style>
<path class="st0" d="M14.5,14.5"/>
<path class="st1" d="M52.7,27.5"/>
<path class="st2" d="M7.2,25.9c2-3.1,7.3-11.4,7.3-11.4"/>
<path class="st3" d="M14.5,8.3"/>
<path class="st0" d="M17.9,17.5"/>
<path class="st3" d="M8.4,17.5c2-3.1,6-9.2,6-9.2"/>
<path class="st0" d="M14.2,14.5"/>
<path class="st2" d="M21.8,25.9c-2-3.1-7.3-11.4-7.3-11.4"/>
<path class="st3" d="M14.2,8.3"/>
<path class="st3" d="M20.6,17.5c-2-3.1-6-9.2-6-9.2"/>
<g>
	<path class="st3" d="M10,9.9c1.9-2.9,4.4-6.8,4.4-6.8"/>
	<line class="st3" x1="18.9" y1="9.9" x2="14.6" y2="3.1"/>
	<path class="st3" d="M14.5,3.1"/>
</g>
<path class="st0" d="M29.4,14.5"/>
<path class="st1" d="M82.7,27.5"/>
<path class="st2" d="M22.1,25.9c2-3.1,7.3-11.4,7.3-11.4"/>
<path class="st3" d="M29.4,8.3"/>
<path class="st0" d="M35.3,17.5"/>
<path class="st3" d="M23.3,17.5c2-3.1,6-9.2,6-9.2"/>
<path class="st0" d="M29,14.5"/>
<path class="st2" d="M36.7,25.9c-2-3.1-7.3-11.4-7.3-11.4"/>
<path class="st3" d="M29,8.3"/>
<path class="st3" d="M35.8,17.5c-2-3.1-6.3-9.2-6.3-9.2"/>
<g>
	<path class="st3" d="M24.9,9.9c1.9-2.9,4.4-6.8,4.4-6.8"/>
	<path class="st3" d="M33.8,9.9C32,7,29.4,3.1,29.4,3.1"/>
	<path class="st3" d="M29.4,3.1"/>
</g>
<path class="st0" d="M44.2,14.5"/>
<path class="st1" d="M114.7,27.5"/>
<path class="st2" d="M36.9,25.9c2-3.1,7.3-11.4,7.3-11.4"/>
<path class="st3" d="M44.2,8.3"/>
<path class="st1" d="M112.6,16.1"/>
<path class="st3" d="M38.1,17.5c2-3.1,6-9.2,6-9.2"/>
<path class="st0" d="M43.9,14.5"/>
<path class="st2" d="M51.5,25.9c-2-3.1-7.3-11.4-7.3-11.4"/>
<path class="st3" d="M43.9,8.3"/>
<path class="st3" d="M50.3,17.5c-2-3.1-6-9.2-6-9.2"/>
<g>
	<path class="st3" d="M39.8,9.9c1.9-2.9,4.4-6.8,4.4-6.8"/>
	<path class="st3" d="M48.7,9.9c-1.9-2.9-4.4-6.8-4.4-6.8"/>
	<path class="st3" d="M44.2,3.1"/>
</g>
</svg>
